SplineFontDB: 3.2
FontName: HandOfSeth4Regular
FullName: Hand Of Seth 4
FamilyName: Hand Of Seth 4
Weight: Regular
Copyright: 
Version: Version 1.004;Fontself Maker 2.3.5
ItalicAngle: 0
UnderlinePosition: 0
UnderlineWidth: 0
Ascent: 800
Descent: 200
InvalidEm: 0
sfntRevision: 0x00010000
LayerCount: 2
Layer: 0 0 "Back" 1
Layer: 1 0 "Fore" 0
XUID: [1021 151 -577181646 2637587]
StyleMap: 0x0040
FSType: 0
OS2Version: 4
OS2_WeightWidthSlopeOnly: 0
OS2_UseTypoMetrics: 0
CreationTime: 1534623579
ModificationTime: 1640300879
PfmFamily: 81
TTFWeight: 400
TTFWidth: 5
LineGap: 0
VLineGap: 0
Panose: 0 0 0 0 0 0 0 0 0 0
OS2TypoAscent: 870
OS2TypoAOffset: 0
OS2TypoDescent: -200
OS2TypoDOffset: 0
OS2TypoLinegap: 0
OS2WinAscent: 970
OS2WinAOffset: 0
OS2WinDescent: 451
OS2WinDOffset: 0
HheadAscent: 870
HheadAOffset: 0
HheadDescent: -200
HheadDOffset: 0
OS2SubXSize: 650
OS2SubYSize: 699
OS2SubXOff: 0
OS2SubYOff: 140
OS2SupXSize: 650
OS2SupYSize: 699
OS2SupXOff: 0
OS2SupYOff: 479
OS2StrikeYSize: 49
OS2StrikeYPos: 258
OS2CapHeight: 820
OS2XHeight: 446
OS2Vendor: 'XXXX'
OS2CodePages: 00000001.00000000
OS2UnicodeRanges: 00000003.00000000.00000000.00000000
MarkAttachClasses: 1
DEI: 91125
LangName: 1033 "" "" "" "" "" "Version 1.002;Fontself Maker 2.3.5" "" "" "" "Seth Black" "" "" "https://www.sethserver.com/" "" "" "" "Hand Of Seth 4" "Regular"
Encoding: UnicodeBmp
UnicodeInterp: none
NameList: AGL For New Fonts
DisplaySize: -48
AntiAlias: 1
FitToEm: 0
WinInfo: 44 22 7
BeginPrivate: 3
BlueValues 23 [-4 18 365 446 791 826]
StdVW 2 []
StdHW 2 []
EndPrivate
BeginChars: 65536 98

StartChar: exclam
Encoding: 33 33 4
Width: 227
Flags: W
HStem: 16 21G<63 75.5> 792 20G<79.5 89>
VStem: 65 34<382.2 811.727> 75 24<196.033 615.8>
LayerCount: 2
Fore
SplineSet
58 18 m 0xc0
 52 23 50 28 50 34 c 0
 50 66 120 108 132 116 c 1
 144 116 l 2
 163 116 178 100 178 82 c 2
 178 81 l 1
 146 63 87 16 64 16 c 0
 62 16 60 17 58 18 c 0xc0
65 791 m 2xe0
 65 803 74 812 85 812 c 0
 93 812 99 806 99 798 c 2xe0
 99 219 l 2
 99 206 99 196 86 196 c 0
 80 196 75 201 75 207 c 2xd0
 65 791 l 2xe0
EndSplineSet
EndChar

StartChar: quotedbl
Encoding: 34 34 5
Width: 375
Flags: W
HStem: 607 217
VStem: 107 57<732.515 815.245> 125 39<687.734 807.782> 268 56<732.515 816.225> 286 38<688.463 807.782>
LayerCount: 2
Fore
SplineSet
115 771 m 0xa0
 112 782 107 794 107 804 c 0xc0
 107 814 112 821 129 824 c 1
 151 822 160 769 163 747 c 0
 164 741 164 736 164 730 c 0
 164 692 146 660 115 635 c 0
 105 626 82 607 66 607 c 0
 58 607 52 611 50 623 c 0
 50 624 l 0
 50 640 103 679 113 697 c 0
 122 712 125 722 125 732 c 0
 125 743 121 753 115 771 c 0xa0
276 771 m 0
 273 782 268 794 268 804 c 0x90
 268 814 273 821 290 824 c 1
 312 822 320 769 323 747 c 0
 324 741 324 734 324 728 c 0
 324 691 306 659 276 635 c 0
 266 626 243 607 227 607 c 0
 219 607 213 611 211 623 c 0
 211 624 l 0
 211 640 263 679 274 697 c 0
 283 712 286 722 286 732 c 0x88
 286 743 282 753 276 771 c 0
EndSplineSet
EndChar

StartChar: numbersign
Encoding: 35 35 6
Width: 870
Flags: W
HStem: 0 21G<242 250.5> 170 35<71.0967 246.051> 203 43<610 820.328> 203 35<313 550.18> 409 39<107.567 310.637> 420 35<50.2114 215.611 402.914 621.575> 434 34<679 815.948>
VStem: 223 48<5.18605 65> 317 69<478.871 596.902> 532 34<21.8507 66.697>
LayerCount: 2
Fore
SplineSet
695 650 m 0x85c0
 699 663 710 672 723 672 c 0
 734 672 743 663 743 652 c 0
 743 650 742 649 742 647 c 0
 723 588 679 530 679 468 c 1
 798 468 l 2
 807 469 815 462 816 453 c 0
 817 441 808 432 797 432 c 0
 758 432 688 432 663 434 c 1
 638 387 620 287 610 246 c 1
 792 246 l 2
 806 246 818 236 821 222 c 0
 822 212 815 203 805 203 c 2xa3c0
 599 203 l 1
 566 30 l 2
 565 25 560 21 555 21 c 0
 542 21 532 31 532 44 c 0
 532 45 532 45 532 46 c 0
 539 98 553 151 553 203 c 1
 547 203 541 203 534 203 c 0
 301 203 l 1x91c0
 271 23 l 2
 269 9 257 0 244 0 c 0
 240 0 237 0 233 2 c 0
 231 3 229 4 227 5 c 0
 226 9 224 11 223 15 c 0
 245 100 266 158 266 191 c 1
 255 184 188 177 86 170 c 0
 79 170 73 174 71 180 c 0
 71 181 71 181 71 181 c 0
 68 192 76 204 88 205 c 0
 143 208 241 216 278 231 c 1
 287 279 302 361 312 409 c 1
 228 409 148 411 65 419 c 0
 56 420 50 427 50 435 c 0
 50 446 59 455 70 454 c 0
 118 453 167 448 218 448 c 0xc9c0
 250 448 283 450 317 456 c 1
 325 465 331 647 364 647 c 0
 368 647 372 645 376 640 c 0
 384 632 386 617 386 600 c 0
 386 551 363 479 359 455 c 1
 393 455 442 452 492 452 c 0
 550 452 608 455 644 467 c 1
 664 510 682 598 695 650 c 0x85c0
622 420 m 1x95c0
 616 420 610 420 604 420 c 0x95c0
 518 420 432 414 347 409 c 1x89c0
 347 390 336 333 313 238 c 0
 352 238 393 238 432 238 c 0
 452 238 472 238 491 238 c 0
 623 238 562 251 622 420 c 1x95c0
EndSplineSet
EndChar

StartChar: dollar
Encoding: 36 36 7
Width: 629
Flags: W
HStem: 0 21G<268.5 279.5> 100 41<358.424 514.937>
VStem: 222 37<535.382 652.663> 253 42<0.00728989 25.907> 396 35<621.453 709> 409 34<746.701 909.374> 533 47<158.21 280.934>
LayerCount: 2
Fore
SplineSet
409 894 m 0xe6
 409 895 409 895 409 896 c 0
 409 913 424 926 440 926 c 0
 448 926 454 920 454 912 c 0
 450 856 443 799 443 743 c 1xe6
 463 734 521 683 521 656 c 0
 521 651 519 646 512 643 c 0
 501 638 490 645 486 656 c 0
 479 674 461 692 431 709 c 1
 431 666 416 579 386 446 c 1
 455 401 580 312 580 213 c 0
 580 196 577 180 569 163 c 0
 547 115 506 100 459 100 c 0
 411 100 358 116 317 126 c 1
 304 91 297 56 295 19 c 0
 294 9 285 0 274 0 c 0
 263 0 253 10 253 21 c 0xda
 253 23 254 24 254 26 c 0
 262 57 282 97 282 126 c 0
 282 144 274 158 249 161 c 1
 194 186 135 207 92 243 c 0
 84 250 50 266 50 280 c 0
 50 287 57 293 77 297 c 0
 79 298 81 298 84 298 c 0
 133 298 230 194 294 194 c 1
 297 274 324 357 340 434 c 1
 269 483 222 539 222 596 c 0
 222 639 248 682 310 723 c 1
 388 757 410 731 410 778 c 0
 410 785 409 794 408 806 c 0
 409 818 409 833 409 848 c 0
 409 863 409 879 409 894 c 0xe6
396 722 m 1xea
 337 722 258 664 258 596 c 0
 258 592 259 589 259 585 c 1
 259 583 259 582 259 580 c 0
 259 536 314 497 350 482 c 1
 381 626 396 706 396 722 c 1xea
532 229 m 0
 525 292 432 393 373 402 c 1
 327 173 l 1
 363 158 414 141 456 141 c 0
 499 141 533 159 533 213 c 0
 533 218 533 224 532 229 c 0
EndSplineSet
EndChar

StartChar: percent
Encoding: 37 37 8
Width: 908
Flags: W
HStem: 0 21G<280 296.5> 92 32<618.799 785.496> 298 24<167.843 302.913> 299 30<644.775 723.343> 318 26<732.064 766.05> 580 27<169.817 247.531>
VStem: 50 26<390.874 480.611> 359 31<364.296 429.154> 549 24<160.68 227.542> 628 29<608.437 633.834> 824 35<154.261 261.717>
LayerCount: 2
Fore
SplineSet
51 423 m 0xe7e0
 51 428 50 433 50 438 c 0
 50 521 109 607 197 607 c 0
 201 607 205 607 209 607 c 0
 240 607 265 599 283 570 c 0
 304 537 313 508 340 475 c 0
 353 459 371 442 381 423 c 0
 387 410 390 399 390 388 c 0
 390 328 302 300 242 298 c 0
 239 298 235 298 232 298 c 0
 151 298 59 334 51 423 c 0xe7e0
248 574 m 1
 238 578 228 580 218 580 c 0
 149 580 76 495 76 432 c 0
 76 363 163 322 240 322 c 0
 287 322 330 337 348 370 c 0
 356 384 359 393 359 400 c 0
 359 413 350 421 336 439 c 0
 301 487 267 519 248 574 c 1
601 591 m 0
 608 601 620 615 628 629 c 0
 636 644 658 636 657 620 c 0
 655 596 635 567 626 547 c 0
 595 483 561 420 526 358 c 0
 475 265 427 161 364 75 c 0
 345 49 313 1 280 0 c 1
 280 1 l 0
 280 29 315 59 331 82 c 0
 365 135 395 191 424 246 c 0
 460 315 494 385 528 455 c 0
 550 503 573 547 601 591 c 0
724 318 m 1xcfe0
 724 331 l 2
 724 341 734 348 742 344 c 0xcfe0
 799 318 859 268 859 202 c 0
 859 194 858 185 856 176 c 0
 841 114 763 92 698 92 c 0
 677 92 657 94 641 98 c 0
 575 114 549 152 549 192 c 0
 549 258 615 329 681 329 c 0xd7e0
 695 329 710 326 724 318 c 1xcfe0
808 155 m 0
 819 166 824 182 824 199 c 0
 824 251 781 318 732 318 c 1xcfe0
 732 309 737 304 747 302 c 0
 753 301 757 295 757 289 c 0
 757 278 746 272 737 277 c 0
 722 286 707 298 690 299 c 0
 689 299 688 299 688 299 c 0xd7e0
 653 299 603 260 585 229 c 0
 577 214 573 201 573 190 c 0
 573 160 600 143 641 133 c 0
 662 128 687 124 713 124 c 0
 748 124 784 132 808 155 c 0
EndSplineSet
EndChar

StartChar: ampersand
Encoding: 38 38 9
Width: 304
Flags: W
HStem: 0 21G<179 186.5> 143 23<104.95 254.191> 398 21G<238.5 246> 449 25<139.309 211.03>
VStem: 50 18<200.326 250.063> 86 17<346.68 401.894> 172 41<2.91625 47.0946> 228 25<398.092 434.788>
LayerCount: 2
Fore
SplineSet
132 463 m 0
 144 470 157 474 170 474 c 0
 184 474 199 470 211 462 c 0
 234 447 248 431 253 413 c 0
 255 406 250 398 242 398 c 0
 235 398 229 403 228 410 c 0
 223 437 202 449 179 449 c 0
 158 449 136 439 123 421 c 0
 109 402 103 385 103 372 c 0
 103 341 133 324 171 315 c 0
 182 313 184 299 176 293 c 0
 144 270 68 272 68 229 c 0
 68 223 70 215 74 206 c 0
 88 174 131 166 173 166 c 0
 198 166 223 168 242 171 c 0
 249 172 255 166 255 159 c 2
 255 152 250 146 243 146 c 0
 219 145 191 143 165 143 c 0
 141 143 118 145 98 152 c 0
 66 163 50 193 50 222 c 0
 50 260 75 298 123 298 c 1
 97 317 86 346 86 374 c 0
 86 409 103 444 132 463 c 0
164 591 m 0
 172 613 199 629 215 643 c 1
 221 643 l 2
 229 643 234 635 230 628 c 0
 220 609 195 587 177 580 c 0
 169 576 162 584 164 591 c 0
172 15 m 0
 178 31 190 50 202 53 c 1
 210 52 213 48 213 44 c 0
 213 35 203 21 198 10 c 0
 196 4 190 0 183 0 c 0
 175 0 170 8 172 15 c 0
EndSplineSet
EndChar

StartChar: quotesingle
Encoding: 39 39 10
Width: 213
Flags: W
HStem: 634 217
VStem: 128 36<718.961 810.246>
LayerCount: 2
Fore
SplineSet
107 839 m 0
 109 844 124 848 129 851 c 0
 130 851 131 851 132 851 c 0
 150 851 160 789 162 774 c 0
 163 767 164 760 164 754 c 0
 164 719 147 688 119 664 c 0
 110 656 83 634 65 634 c 0
 58 634 52 638 50 648 c 0
 50 649 l 0
 50 666 101 704 112 721 c 0
 118 731 123 741 126 752 c 0
 127 756 128 760 128 764 c 0
 128 775 122 782 117 795 c 0
 114 801 105 820 105 832 c 0
 105 835 106 837 107 839 c 0
EndSplineSet
EndChar

StartChar: parenleft
Encoding: 40 40 11
Width: 399
Flags: W
HStem: -3 21G<139 144.5>
VStem: 50 40<139.74 427.162>
LayerCount: 2
Fore
SplineSet
58 421 m 0
 88 557 193 764 325 835 c 0
 338 842 354 829 349 815 c 0
 336 779 286 758 259 728 c 0
 203 666 167 588 137 511 c 0
 106 432 90 356 90 281 c 0
 90 194 111 110 155 24 c 0
 156 21 157 18 157 15 c 0
 157 6 149 -3 140 -3 c 0
 138 -3 137 -2 135 -2 c 0
 70 17 50 189 50 312 c 0
 50 360 53 401 58 421 c 0
EndSplineSet
EndChar

StartChar: parenright
Encoding: 41 41 12
Width: 369
Flags: W
HStem: 7 21G<70 78.5> 796 20G<121.5 155>
VStem: 287 33<245.523 506.159>
LayerCount: 2
Fore
SplineSet
187 699 m 0
 168 728 114 772 114 808 c 0
 114 810 115 813 115 815 c 1
 118 816 120 816 123 816 c 0
 187 816 270 643 287 598 c 0
 314 530 320 459 320 387 c 0
 320 381 320 375 320 369 c 0
 320 298 316 227 282 163 c 0
 247 97 167 20 90 8 c 0
 86 7 81 7 76 7 c 0
 64 7 50 10 50 22 c 0
 50 26 52 32 57 39 c 0
 71 57 141 70 164 86 c 0
 227 130 263 199 278 273 c 0
 284 305 287 338 287 370 c 0
 287 435 276 501 255 561 c 0
 238 610 215 656 187 699 c 0
EndSplineSet
EndChar

StartChar: asterisk
Encoding: 42 42 13
Width: 327
Flags: W
HStem: 0 21G<103 107.5> 114 13<50.4087 51 82 126.325 146 160 186 225 254.65 277.977>
VStem: 51 31<103.977 116> 129 17<92.1605 113.869 127 154 179.88 236.974> 168 18<94.2373 114>
LayerCount: 2
Fore
SplineSet
129 228 m 2
 129 233 133 237 138 237 c 2
 143 237 146 233 146 229 c 0
 147 209 150 189 158 170 c 0
 162 159 168 148 174 137 c 0
 178 132 179 128 185 127 c 0
 189 127 192 127 196 127 c 0
 204 127 212 127 219 127 c 0
 233 127 247 127 261 127 c 0
 265 127 269 127 272 127 c 0
 280 126 280 115 272 113 c 0
 257 110 234 100 203 83 c 1
 210 65 217 47 222 29 c 0
 225 22 228 11 225 5 c 0
 219 -6 207 5 201 9 c 0
 185 22 170 35 155 48 c 1
 144 34 132 20 120 7 c 0
 113 1 112 0 103 0 c 1
 103 13 109 26 113 38 c 0
 117 52 121 65 125 79 c 1
 101 94 51 105 51 114 c 1
 50 114 l 1
 50 118 l 2
 50 123 54 127 60 127 c 2
 129 127 l 1
 129 228 l 2
120 114 m 0
 116 114 86 116 82 116 c 1
 82 109 113 94 128 92 c 1
 128 99 128 113 120 114 c 0
146 61 m 1
 138 66 l 1
 134 59 133 56 133 48 c 1
 137 48 142 53 146 61 c 1
168 114 m 1
 142 114 l 1
 142 109 141 103 141 98 c 0
 141 91 142 84 146 80 c 0
 149 77 157 70 160 70 c 0
 162 70 165 73 166 74 c 0
 171 77 176 80 181 83 c 1
 173 98 168 108 168 114 c 1
151 154 m 1
 146 154 l 1
 146 127 l 1
 160 127 l 1
 154 139 151 148 151 154 c 1
190 70 m 1
 179 66 173 61 173 57 c 0
 173 52 180 46 183 43 c 0
 190 37 199 26 208 26 c 1
 196 52 190 66 190 70 c 1
225 114 m 1
 186 114 l 1
 186 108 189 99 194 94 c 0
 198 91 199 92 203 95 c 0
 210 102 218 108 225 114 c 1
EndSplineSet
EndChar

StartChar: plus
Encoding: 43 43 14
Width: 360
Flags: W
HStem: 275 34<202.9 298.718> 275 23<50.1038 169.903 202.096 276.823>
VStem: 171 36<124.379 236.146> 175 27<161.269 274.807 298.096 465.839>
LayerCount: 2
Fore
SplineSet
171 338 m 0x60
 171 382 171 425 171 468 c 1x60
 173 468 175 468 177 468 c 0
 199 468 203 452 203 433 c 0
 203 423 202 412 202 403 c 0
 202 368 202 333 202 298 c 1x50
 221 300 253 309 278 309 c 0
 286 309 293 308 299 306 c 0
 313 301 315 291 302 281 c 0
 292 274 271 276 258 275 c 0x90
 252 275 231 278 217 278 c 0
 209 278 204 277 202 275 c 0
 200 273 200 269 200 264 c 0
 200 254 202 241 202 237 c 0x50
 202 219 207 187 207 160 c 0
 207 146 206 132 201 124 c 0
 197 117 187 112 180 112 c 0
 176 112 173 113 171 115 c 0
 169 118 168 124 168 131 c 0
 168 146 171 165 171 171 c 0x60
 171 181 175 217 175 244 c 0x50
 175 259 174 271 170 275 c 0
 168 277 164 277 158 277 c 0
 146 277 131 275 126 275 c 0
 117 275 96 272 80 272 c 0
 71 272 64 273 60 275 c 0
 53 280 50 284 50 287 c 0
 50 297 86 298 104 298 c 0
 108 298 111 298 113 298 c 0
 119 298 139 295 154 295 c 0
 162 295 168 296 170 298 c 0
 172 300 173 305 173 312 c 0
 173 322 171 335 171 338 c 0x60
EndSplineSet
EndChar

StartChar: comma
Encoding: 44 44 15
Width: 213
Flags: W
VStem: 118 46<-9.54495 109.545>
LayerCount: 2
Fore
SplineSet
55 -60 m 0
 126 -1 105 49 118 101 c 0
 122 114 140 117 146 105 c 0
 156 86 164 63 164 42 c 0
 164 41 164 39 164 38 c 0
 162 -3 90 -80 61 -80 c 0
 56 -80 53 -78 51 -74 c 0
 49 -69 51 -64 55 -60 c 0
EndSplineSet
EndChar

StartChar: hyphen
Encoding: 45 45 16
Width: 429
Flags: W
HStem: 300 33<50.0232 378.903>
VStem: 50 330<300.049 332.945>
LayerCount: 2
Fore
SplineSet
79 300 m 0
 74 300 70 300 67 300 c 0
 52 300 50 301 50 316 c 0
 50 325 58 333 67 333 c 0
 105 333 315 333 352 333 c 0
 357 333 373 336 377 333 c 0
 379 332 380 320 380 310 c 0
 380 305 380 301 379 300 c 0
 377 298 371 297 363 297 c 0
 348 297 326 300 322 300 c 0
 278 300 233 300 189 300 c 0
 153 300 116 300 79 300 c 0
EndSplineSet
EndChar

StartChar: period
Encoding: 46 46 17
Width: 231
Flags: W
HStem: -1 105<97.4104 149.452>
VStem: 50 132<20.7222 61.7331>
LayerCount: 2
Fore
SplineSet
50 28 m 0
 55 57 94 81 120 96 c 0
 126 100 133 102 140 103 c 0
 145 103 149 104 154 104 c 0
 164 104 173 102 176 95 c 0
 180 87 182 79 182 71 c 0
 182 46 164 22 150 11 c 0
 139 3 83 1 73 -1 c 0
 72 -1 71 -1 69 -1 c 0
 56 -1 50 12 50 24 c 0
 50 25 50 27 50 28 c 0
EndSplineSet
EndChar

StartChar: slash
Encoding: 47 47 18
Width: 509
Flags: W
HStem: 12 21G<66.5 77.5>
VStem: 50 42<12.3027 106.741>
LayerCount: 2
Fore
SplineSet
139 285 m 0
 222 482 314 676 407 868 c 0
 411 877 419 883 429 884 c 0
 441 885 454 886 458 882 c 0
 459 881 460 879 460 876 c 0
 460 861 436 826 432 817 c 0
 400 754 369 691 338 627 c 0
 287 522 236 416 190 309 c 0
 161 241 132 172 110 100 c 0
 104 79 98 57 95 35 c 0
 94 29 95 17 92 14 c 0
 89 12 82 12 73 12 c 0
 60 13 50 24 50 37 c 0
 50 39 50 40 50 41 c 0
 55 64 63 86 70 108 c 0
 90 168 115 227 139 285 c 0
EndSplineSet
EndChar

StartChar: zero
Encoding: 48 48 19
Width: 728
Flags: W
HStem: 0 38<223.308 465.054> 719 35<368.042 449.79>
VStem: 50 39<166.245 383.735> 633 46<176.189 393.289>
LayerCount: 2
Fore
SplineSet
50 270 m 0
 51 456 212 754 427 754 c 2
 430 754 l 2
 441 754 450 745 450 734 c 0
 450 726 444 720 436 719 c 0
 250 708 89 463 89 270 c 0
 89 155 146 58 290 41 c 0
 307 39 324 38 342 38 c 0
 483 38 629 105 633 263 c 0
 633 266 633 269 633 273 c 0
 633 353 609 432 560 497 c 0
 522 548 381 615 381 675 c 0
 381 678 381 682 382 685 c 1
 542 651 679 433 679 276 c 0
 679 275 679 275 679 274 c 0
 677 78 504 3 330 0 c 0
 327 0 325 0 322 0 c 0
 156 0 50 96 50 268 c 0
 50 268 50 269 50 270 c 0
EndSplineSet
EndChar

StartChar: one
Encoding: 49 49 20
Width: 208
Flags: W
HStem: -1 21G<59.5 68>
VStem: 110 50<580.877 783.078>
LayerCount: 2
Fore
SplineSet
160 791 m 24
 152 601 139 465 123 304 c 0
 118 255 126 24 80 3 c 0
 74 0 70 -1 66 -1 c 0
 53 -1 49 12 49 30 c 0
 49 56 57 93 59 116 c 0
 64 176 81 297 89 385 c 0
 102 507 110 630 110 752 c 0
 110 775 128 779 144 791 c 24
 149 795 160 797 160 791 c 24
EndSplineSet
EndChar

StartChar: two
Encoding: 50 50 21
Width: 602
Flags: W
HStem: -2 45<96.8135 183.225> 21 34<482.595 553> 203 44<161.647 257.348> 751 45<342.914 443.935>
VStem: 50 46<43.5942 126.757> 475 45<447.426 718.788>
LayerCount: 2
Fore
SplineSet
384 796 m 0xbc
 396 796 407 795 418 792 c 0
 436 787 452 778 465 766 c 0
 508 726 520 670 520 612 c 0
 520 576 515 539 510 505 c 0
 492 386 444 274 370 180 c 1
 370 169 l 1
 428 94 488 56 551 55 c 0
 552 55 553 54 553 53 c 2
 553 21 l 2
 553 21 553 21 552 21 c 0
 551 21 550 21 550 21 c 0x7c
 460 21 391 79 336 146 c 1
 248 47 172 -2 107 -2 c 1
 69 13 50 36 50 66 c 1
 67 129 96 198 157 230 c 0
 179 242 200 247 221 247 c 0
 261 247 299 229 336 203 c 1
 417 307 470 430 473 563 c 0
 473 582 475 605 475 628 c 0
 475 649 473 671 468 690 c 0
 459 726 425 751 389 751 c 0
 386 751 382 750 379 750 c 0
 296 739 223 693 159 611 c 0
 155 606 149 603 143 603 c 0
 136 603 130 609 130 616 c 2
 130 618 l 2
 130 623 131 628 134 633 c 0
 192 730 274 790 384 796 c 0xbc
233 203 m 1
 232 203 232 203 231 203 c 0
 149 203 113 138 96 66 c 1
 96 49 l 2
 96 46 98 43 101 43 c 0xbc
 193 46 257 112 313 180 c 1
 233 203 l 1
EndSplineSet
EndChar

StartChar: three
Encoding: 51 51 22
Width: 637
Flags: W
HStem: -1 42<245.478 456.892> 417 68<287.352 355.144> 793 36<334.453 446.299>
VStem: 494 40<560.83 738.838> 551 37<144.836 334.822>
LayerCount: 2
Fore
SplineSet
210 713 m 0
 225 771 330 829 380 829 c 0
 383 829 387 829 390 829 c 0
 451 829 489 795 515 739 c 0
 529 709 534 682 534 655 c 0
 534 598 509 545 483 486 c 1
 544 474 567 353 580 302 c 0
 586 280 588 257 588 234 c 0
 588 154 554 74 483 27 c 0
 454 8 409 -1 358 -1 c 0
 223 -1 50 64 50 180 c 0
 50 204 54 213 60 213 c 0
 77 213 114 133 130 120 c 0
 186 77 281 41 364 41 c 0
 403 41 440 49 468 68 c 0
 527 107 551 169 551 234 c 0
 551 272 543 312 528 348 c 0
 513 387 484 456 443 463 c 0
 442 463 441 463 439 463 c 0
 407 463 320 421 288 417 c 1
 280 428 277 436 277 444 c 0
 277 464 303 474 329 485 c 0
 383 508 422 492 462 541 c 0
 486 571 493 614 494 651 c 0
 494 654 494 656 494 659 c 0
 494 718 473 781 407 792 c 0
 401 793 396 793 390 793 c 0
 327 793 288 732 230 692 c 0
 219 685 206 701 210 713 c 0
EndSplineSet
EndChar

StartChar: four
Encoding: 52 52 23
Width: 578
Flags: W
HStem: -2 21G<383 405> 352 46<449 501.111> 358 49<97.4382 403> 801 20G<426 450>
VStem: 50 45<417.001 475.014> 211 33<714.569 795.808> 371 44<-2 205.444> 403 46<157.914 352> 412 49<596.011 821>
LayerCount: 2
Fore
SplineSet
414 806 m 0xbc80
 415 814 422 821 430 821 c 2
 446 821 l 2
 454 821 461 814 461 806 c 0xbc80
 461 670 459 535 449 398 c 1
 516 389 l 2
 523 388 529 381 529 373 c 2
 529 357 l 2
 529 349 522 343 514 345 c 0
 496 349 477 352 458 352 c 0
 455 352 452 352 449 352 c 1xdd
 429 177 417 64 415 13 c 0
 415 5 409 -2 401 -2 c 2
 388 -2 l 2
 378 -2 370 7 371 17 c 0xde
 393 190 403 306 403 364 c 1xdd
 371 364 306 358 240 358 c 0
 155 358 68 368 52 417 c 0
 50 422 50 426 50 431 c 0
 50 466 82 508 95 534 c 0
 130 603 211 702 211 782 c 0
 211 783 l 0
 210 793 221 800 230 796 c 0
 240 792 244 782 244 768 c 0
 244 686 95 459 95 422 c 0
 95 421 l 1
 147 410 200 407 254 407 c 0
 308 407 362 410 415 410 c 1xbe
 415 504 412 598 412 691 c 0
 412 730 413 768 414 806 c 0xbc80
EndSplineSet
EndChar

StartChar: five
Encoding: 53 53 24
Width: 774
Flags: W
HStem: 1 39<316.89 464.941> 717 50<332.247 666.696> 752 42<636.589 725> 791 20G<247 306.5>
VStem: 187 50<613.043 736.858> 530 34<129.39 352.748>
LayerCount: 2
Fore
SplineSet
187 647 m 0xcc
 187 648 187 650 187 651 c 0
 187 693 227 811 267 811 c 1
 346 779 415 767 483 767 c 0xdc
 554 767 625 780 707 794 c 0
 716 796 725 789 725 779 c 2
 725 770 l 2
 725 762 720 755 712 752 c 0xac
 639 728 568 717 498 717 c 0
 422 717 346 731 267 756 c 1
 247 715 237 685 237 662 c 0
 237 610 283 591 351 554 c 0
 426 513 501 501 540 406 c 0
 559 361 564 315 564 267 c 0
 564 259 564 250 564 242 c 0
 558 61 490 1 406 1 c 0
 254 1 50 191 50 220 c 0
 50 221 50 222 50 222 c 0
 55 234 61 239 69 239 c 0
 99 239 147 165 172 144 c 0
 225 101 287 66 349 48 c 0
 368 42 386 40 402 40 c 0
 489 40 530 122 530 242 c 0
 530 249 530 257 530 264 c 0
 525 406 436 480 329 518 c 0
 270 538 196 557 187 647 c 0xcc
EndSplineSet
EndChar

StartChar: six
Encoding: 54 54 25
Width: 693
Flags: W
HStem: -1 44<226.168 502.858> 256 59<436.092 560.311>
VStem: 50 39<157.413 344.504> 340 43<109 195.22> 606 38<112.15 219.255>
LayerCount: 2
Fore
SplineSet
366 780 m 0
 369 783 373 785 377 785 c 0
 387 785 395 776 392 766 c 0
 376 706 264 608 234 566 c 0
 186 500 137 428 109 348 c 0
 95 310 89 274 89 242 c 0
 89 158 134 92 230 63 c 0
 265 52 323 43 384 43 c 0
 476 43 574 64 599 134 c 0
 603 146 606 158 606 169 c 0
 606 222 556 256 503 256 c 0
 447 256 389 218 383 124 c 0
 382 116 375 109 367 109 c 2
 353 109 l 2
 344 109 338 117 340 125 c 0
 356 198 388 285 459 310 c 0
 469 314 480 315 491 315 c 0
 556 315 624 255 640 188 c 0
 643 176 644 165 644 155 c 0
 644 27 445 -1 336 -1 c 0
 322 -1 310 -1 300 0 c 0
 165 8 50 100 50 247 c 0
 50 257 51 268 52 279 c 0
 72 476 240 650 366 780 c 0
EndSplineSet
EndChar

StartChar: seven
Encoding: 55 55 26
Width: 590
Flags: W
HStem: 0 21G<165.5 187>
VStem: 155 44<0 124.328>
LayerCount: 2
Fore
SplineSet
50 750 m 2
 50 758 57 764 65 764 c 0
 155 762 524 755 541 675 c 0
 541 674 541 673 541 672 c 0
 541 625 344 423 313 370 c 0
 251 265 202 144 199 15 c 0
 198 7 191 0 183 0 c 2
 170 0 l 2
 161 0 154 8 155 17 c 0
 176 162 225 300 294 424 c 0
 330 489 369 534 419 583 c 0
 436 600 481 631 484 659 c 1
 63 723 l 2
 56 724 50 731 50 738 c 2
 50 750 l 2
EndSplineSet
EndChar

StartChar: eight
Encoding: 56 56 27
Width: 583
Flags: W
HStem: 2 40<243.206 420.12> 775 38<192.235 412.211>
VStem: 50 44<180.797 336.547> 128 35<658.078 749.289> 444 51<656.082 751.067> 489 45<94.7899 224.874>
LayerCount: 2
Fore
SplineSet
232 504 m 1xf4
 188 566 128 660 128 727 c 0
 128 777 160 813 255 813 c 0
 256 813 258 813 259 813 c 0
 328 813 495 812 495 710 c 0xf8
 494 629 352 535 300 492 c 1
 371 411 502 294 530 184 c 0
 533 173 534 163 534 153 c 0
 534 63 426 2 340 2 c 0
 225 2 90 81 58 196 c 0
 53 215 50 234 50 251 c 0
 50 360 144 441 232 504 c 1xf4
255 470 m 1
 148 397 94 333 94 275 c 0
 94 273 94 270 94 268 c 0
 94 145 213 42 334 42 c 0
 366 42 399 49 430 66 c 0
 472 89 489 119 489 153 c 0xf4
 489 264 309 413 255 470 c 1
425 749 m 0
 406 766 356 775 304 775 c 0
 242 775 179 762 163 732 c 1
 163 730 163 729 163 727 c 0
 163 651 229 579 278 527 c 1
 318 557 444 642 444 709 c 0xf8
 444 724 438 737 425 749 c 0
EndSplineSet
EndChar

StartChar: nine
Encoding: 57 57 28
Width: 560
Flags: W
HStem: 0 21G<398 407.5> 464 40<222.151 400.981> 759 30<176.64 346.382>
VStem: 50 33<611.284 695.691> 385 34<0.0521164 178.094> 395 36<675.278 723.443> 476 35<589.768 674.686>
LayerCount: 2
Fore
SplineSet
92 561 m 0xfa
 63 595 50 629 50 658 c 0
 50 735 134 789 237 789 c 0
 313 789 424 787 431 692 c 0
 431 683 423 675 414 675 c 2
 412 675 l 2
 403 675 396 681 395 689 c 0xf6
 386 738 331 759 269 759 c 0
 183 759 83 718 83 656 c 0
 83 636 93 614 117 591 c 0
 173 536 250 504 318 504 c 0
 399 504 468 549 476 655 c 0
 477 666 486 675 497 675 c 0
 505 675 511 668 511 661 c 0
 507 443 423 234 419 16 c 0
 419 7 412 0 403 0 c 0
 393 0 385 8 385 18 c 0
 387 182 412 340 454 503 c 1
 419 476 373 464 325 464 c 0
 237 464 141 504 92 561 c 0xfa
EndSplineSet
EndChar

StartChar: colon
Encoding: 58 58 29
Width: 237
Flags: W
HStem: 132 135<94.3806 166.32> 441 111<78.2954 159.541>
VStem: 50 130<460.026 523.069> 75 113<153.597 247.409>
LayerCount: 2
Fore
SplineSet
56 493 m 0xe0
 68 535 101 552 143 552 c 1
 154 539 180 505 180 481 c 0
 180 478 179 475 178 472 c 0
 175 466 154 459 149 455 c 0
 134 444 125 441 114 441 c 0
 106 441 98 442 86 444 c 0
 61 448 50 450 50 465 c 0
 50 472 52 481 56 493 c 0xe0
92 157 m 0
 81 174 75 193 75 210 c 0
 75 233 85 254 109 267 c 1
 153 267 188 239 188 203 c 0xd0
 188 187 181 169 165 152 c 0
 152 138 139 132 128 132 c 0
 115 132 103 140 92 157 c 0
EndSplineSet
EndChar

StartChar: semicolon
Encoding: 59 59 30
Width: 179
Flags: W
HStem: 325 42<115 128.813>
VStem: 68 45<-91.365 79.7685> 92 37<325.147 366.903>
LayerCount: 2
Fore
SplineSet
68 56 m 0xc0
 69 69 80 80 93 80 c 2
 95 80 l 2
 105 80 113 71 113 60 c 0
 109 7 113 -79 80 -106 c 0
 77 -109 73 -110 69 -110 c 0
 59 -110 50 -102 50 -91 c 0
 50 -91 50 -90 50 -89 c 0
 60 -25 66 24 68 56 c 0xc0
92 348 m 0xa0
 92 360 103 370 114 367 c 0
 122 365 125 359 129 351 c 0
 133 340 127 328 116 325 c 2
 115 325 l 2
 103 322 92 331 92 344 c 0
 92 345 92 347 92 348 c 0xa0
EndSplineSet
EndChar

StartChar: less
Encoding: 60 60 31
Width: 477
Flags: W
LayerCount: 2
Fore
SplineSet
122 364 m 0
 215 445 313 519 405 600 c 1
 411 602 415 602 419 602 c 0
 425 602 428 600 428 595 c 0
 428 579 386 538 379 532 c 0
 332 488 284 444 235 402 c 0
 205 376 141 302 96 302 c 1
 162 262 238 227 299 179 c 0
 316 165 394 92 394 63 c 0
 394 62 l 0
 392 46 387 41 381 41 c 0
 361 41 328 87 317 98 c 0
 281 134 243 168 201 196 c 0
 168 219 132 239 95 254 c 0
 72 263 50 260 50 282 c 0
 50 285 50 288 51 292 c 0
 56 318 104 349 122 364 c 0
EndSplineSet
EndChar

StartChar: equal
Encoding: 61 61 32
Width: 413
Flags: W
HStem: 182 31<64.0938 96.5788 97.3794 356.516> 190 27<64.8022 361.535> 354 23<52.0896 361.904>
VStem: 50 312
LayerCount: 2
Fore
SplineSet
84 354 m 0x30
 74 354 67 353 62 353 c 0
 52 353 50 357 50 377 c 1
 110 377 170 377 230 377 c 0
 265 377 300 377 335 377 c 0
 339 377 355 380 359 377 c 0
 362 375 367 359 362 354 c 0
 360 352 355 351 348 351 c 0
 333 351 313 354 308 354 c 0
 269 354 231 354 192 354 c 0
 156 354 120 354 84 354 c 0x30
244 213 m 0xb0
 284 213 323 218 362 221 c 1
 362 216 362 213 362 210 c 0
 362 197 360 197 339 193 c 0
 308 187 278 183 247 183 c 0
 218 182 189 182 160 182 c 0
 150 182 139 181 129 182 c 0xb0
 119 183 105 190 97 190 c 0x70
 88 190 80 181 71 181 c 0
 68 181 66 181 64 182 c 0
 59 185 51 201 58 210 c 0
 62 215 60 210 69 213 c 0xb0
 76 216 84 217 94 217 c 0x70
 113 217 134 213 149 213 c 0
 181 213 212 213 244 213 c 0xb0
EndSplineSet
EndChar

StartChar: greater
Encoding: 62 62 33
Width: 501
Flags: W
VStem: 415 37<193.121 245.992>
LayerCount: 2
Fore
SplineSet
170 465 m 0
 161 474 62 562 62 604 c 0
 62 615 68 622 84 625 c 1
 139 520 261 429 344 349 c 0
 377 318 433 281 446 238 c 0
 450 226 452 216 452 207 c 0
 452 187 440 177 412 168 c 0
 332 144 236 125 164 82 c 0
 135 64 110 32 93 3 c 0
 89 -6 80 -30 68 -30 c 0
 63 -30 58 -26 52 -16 c 0
 51 -13 50 -10 50 -7 c 0
 50 21 98 73 113 89 c 0
 141 119 175 143 214 156 c 0
 248 167 400 168 414 210 c 0
 414 211 415 213 415 214 c 0
 415 234 374 268 365 278 c 0
 303 343 236 404 170 465 c 0
EndSplineSet
EndChar

StartChar: question
Encoding: 63 63 34
Width: 632
Flags: W
HStem: 819 48<186.721 408.867>
VStem: 50 56<539.716 731.933> 529 54<613.218 719.317>
LayerCount: 2
Fore
SplineSet
80 753 m 0
 120 830 202 861 287 866 c 0
 298 867 308 867 319 867 c 0
 416 867 512 837 556 743 c 0
 569 717 583 676 583 643 c 0
 583 629 581 617 575 607 c 0
 564 588 538 570 522 554 c 0
 470 501 412 449 366 391 c 0
 327 342 300 276 283 216 c 0
 275 189 276 163 255 150 c 0
 243 142 218 143 204 141 c 1
 204 252 258 355 327 441 c 0
 367 489 411 519 455 559 c 0
 473 574 515 616 525 640 c 0
 528 647 529 655 529 663 c 0
 529 723 445 788 391 805 c 0
 363 813 321 819 281 819 c 0
 255 819 230 817 211 811 c 0
 128 786 107 704 106 629 c 0
 106 625 106 619 106 612 c 0
 106 581 104 529 87 529 c 0
 82 529 75 534 66 546 c 0
 55 562 50 587 50 614 c 0
 50 665 66 724 80 753 c 0
166 -31 m 0
 165 -31 163 -31 162 -31 c 0
 141 -31 133 -25 133 -17 c 0
 133 12 228 75 269 75 c 1
 276 71 296 77 296 58 c 0
 296 54 295 49 293 43 c 0
 281 -2 213 -30 166 -31 c 0
EndSplineSet
EndChar

StartChar: at
Encoding: 64 64 35
Width: 742
Flags: W
HStem: 0 34<249.972 404.745> 173 39<224.267 315.731> 362 20G<444.5 452.5> 465 33<297.264 388.359> 630 35<323.92 518.915>
VStem: 50 42<274.001 384.748> 168 44<220.686 360.742> 401 33<412.732 451.488> 656 36<293.533 500.832>
LayerCount: 2
Fore
SplineSet
61 387 m 0
 98 516 254 665 399 665 c 0
 407 665 416 664 424 663 c 1
 613 663 692 546 692 410 c 0
 692 222 542 0 321 0 c 0
 312 0 305 0 296 1 c 0
 148 12 50 165 50 308 c 0
 50 335 54 362 61 387 c 0
584 185 m 1
 586 188 588 191 590 194 c 0
 632 254 656 324 656 396 c 0
 656 426 652 457 643 487 c 0
 615 585 520 630 424 630 c 0
 380 630 335 621 297 603 c 0
 177 546 93 404 92 275 c 1
 92 275 92 274 93 274 c 0
 123 146 202 34 325 34 c 0
 351 34 381 40 412 52 c 0
 464 72 508 100 546 140 c 0
 547 141 548 143 549 143 c 1
 539 162 475 221 448 282 c 0
 447 284 445 286 443 286 c 2
 441 286 l 2
 438 286 435 284 435 281 c 0
 430 224 337 173 263 173 c 0
 223 173 189 188 176 224 c 0
 170 239 168 253 168 271 c 0
 168 335 204 416 255 466 c 0
 277 487 306 498 335 498 c 0
 370 498 404 482 425 450 c 0
 431 441 434 434 434 427 c 0
 434 418 427 412 407 412 c 0
 404 411 401 414 401 417 c 0
 399 451 374 465 347 465 c 0
 329 465 312 459 297 449 c 0
 255 421 212 333 212 280 c 0
 212 277 212 275 212 272 c 0
 215 229 235 212 261 212 c 0
 318 212 408 296 430 368 c 0
 433 377 440 382 449 382 c 0
 456 382 464 378 467 371 c 0
 476 352 480 329 486 313 c 0
 507 252 547 185 584 185 c 1
EndSplineSet
EndChar

StartChar: A
Encoding: 65 65 36
AltUni2: 0000c5.ffffffff.0 0000c4.ffffffff.0 0000c3.ffffffff.0 0000c2.ffffffff.0 0000c1.ffffffff.0 0000c0.ffffffff.0
Width: 908
Flags: W
HStem: -3 58<798.798 851.056> 9 32<52.25 94.3591> 208 32<483.766 647.406> 786 20G<625 640>
VStem: 618 46<698.467 803.937> 626 38<497.693 664>
LayerCount: 2
Fore
SplineSet
625 806 m 0x78
 626 807 632 806 634 806 c 0
 646 803 664 800 664 788 c 2x78
 664 590 l 2
 676 296 734 118 823 55 c 0
 824 55 825 55 826 54 c 0
 836 53 847 42 858 22 c 0
 858 21 859 20 859 18 c 0
 858 5 851 -2 837 -3 c 0xb4
 836 -3 835 -3 834 -2 c 0
 796 13 766 42 745 88 c 0
 720 155 671 195 596 208 c 0
 596 208 596 208 595 208 c 0
 592 208 528 212 404 219 c 0
 402 219 400 219 399 218 c 0
 296 124 215 66 155 41 c 0
 133 31 110 21 88 11 c 0
 84 9 81 9 77 9 c 0
 63 9 50 20 50 35 c 0
 50 38 52 40 54 41 c 0
 273 115 432 274 530 519 c 0
 533 527 536 534 540 541 c 0
 570 599 596 683 618 796 c 0
 619 799 622 804 625 806 c 0x78
626 664 m 1x34
 424 254 l 1
 509 249 594 245 679 240 c 1
 681 251 l 2
 681 252 681 252 681 253 c 0
 646 469 627 614 626 664 c 1x34
EndSplineSet
EndChar

StartChar: B
Encoding: 66 66 37
Width: 804
Flags: W
HStem: 8 56<331.392 625.09> 136 25<57.408 76.0946> 442 35<582 606.116> 780 35<299.705 520.212>
VStem: 50 34<484.052 588.945> 167 39<31 64.8459 134.156 336.678> 181 52<287.681 618.257> 675 36<525.019 627.763> 716 39<140.871 304.746>
LayerCount: 2
Fore
SplineSet
50 502 m 0xfd80
 59 701 207 815 404 815 c 0
 588 815 698 721 711 531 c 0
 711 530 711 529 711 529 c 0
 711 485 625 491 582 477 c 1
 688 477 755 332 755 214 c 0
 755 169 745 127 723 100 c 0
 667 31 584 8 496 8 c 0
 396 8 291 37 212 65 c 1
 212 47 l 2
 212 38 205 31 197 31 c 2
 182 31 l 2
 174 31 167 37 166 46 c 0
 163 85 143 92 107 110 c 0
 89 119 69 124 59 136 c 0
 48 148 61 166 76 161 c 2
 167 134 l 1xfd80
 172 254 177 374 182 495 c 0
 182 496 182 497 182 499 c 0
 182 509 181 525 181 543 c 0
 181 575 184 611 202 618 c 0
 205 619 208 620 211 620 c 0
 228 620 233 595 233 568 c 0xfb80
 233 541 228 513 228 504 c 0
 225 428 222 353 219 277 c 0
 218 253 206 199 206 161 c 0
 206 146 208 134 212 126 c 0
 230 91 329 86 363 80 c 0
 406 72 456 64 505 64 c 0
 572 64 638 78 685 126 c 0
 707 148 716 179 716 212 c 0
 716 276 682 351 648 392 c 0
 615 431 573 442 527 442 c 0
 468 442 403 423 346 420 c 0
 336 419 328 431 334 440 c 0
 364 493 571 502 605 510 c 0
 650 520 675 522 675 559 c 0
 675 564 675 569 674 575 c 0
 666 630 632 688 589 724 c 0
 541 764 480 780 418 780 c 0
 355 780 290 764 235 739 c 0
 133 692 87 607 84 499 c 0
 84 491 77 484 68 484 c 0
 58 484 50 492 50 502 c 0xfd80
EndSplineSet
EndChar

StartChar: C
Encoding: 67 67 38
AltUni2: 0000c7.ffffffff.0
Width: 832
Flags: W
HStem: 11 45<350.366 690.864> 772 45<425.13 629.661>
VStem: 50 30<325.323 471.703>
LayerCount: 2
Fore
SplineSet
783 65 m 2
 781 58 l 2
 781 54 778 51 774 50 c 0
 696 26 608 11 522 11 c 0
 322 11 128 88 65 301 c 0
 55 336 50 370 50 402 c 0
 50 652 339 817 577 817 c 0
 617 817 665 799 695 769 c 0
 700 764 702 758 702 752 c 0
 702 740 692 728 678 728 c 0
 675 728 671 729 667 731 c 0
 636 747 601 768 571 771 c 0
 561 772 551 772 541 772 c 0
 470 772 391 750 331 719 c 0
 214 660 80 532 80 400 c 0
 80 379 83 357 91 336 c 0
 174 103 311 56 462 56 c 0
 564 56 672 78 773 78 c 0
 779 78 784 72 783 65 c 2
EndSplineSet
EndChar

StartChar: D
Encoding: 68 68 39
Width: 944
Flags: W
HStem: 3 45<182.462 551.993> 780 40<329.692 533.197>
VStem: 276 65<176.351 421.475> 304 37<487.893 624.98> 844 51<222.765 435.189>
LayerCount: 2
Fore
SplineSet
51 520 m 0xc8
 102 659 242 820 398 820 c 0
 402 820 407 820 411 820 c 0
 538 820 649 778 734 681 c 0
 806 599 895 442 895 315 c 0
 895 295 892 275 887 256 c 0
 852 127 658 46 540 22 c 0
 479 10 420 3 361 3 c 0
 291 3 221 13 150 33 c 0
 144 35 139 41 139 47 c 2
 139 53 l 2
 139 62 147 69 157 68 c 0
 232 57 310 48 388 48 c 0
 476 48 565 60 649 93 c 0
 777 144 844 198 844 323 c 0
 844 334 844 345 843 356 c 0
 829 552 689 726 498 771 c 0
 473 777 449 780 426 780 c 0
 269 780 160 648 83 508 c 0
 80 503 75 500 69 500 c 2
 65 500 l 2
 55 500 47 510 51 520 c 0xc8
304 613 m 0xd8
 306 620 312 625 320 625 c 2
 325 625 l 2
 334 625 341 618 341 609 c 0
 341 602 341 593 341 583 c 0xd8
 341 540 342 476 342 406 c 0
 342 277 337 131 305 79 c 0
 297 66 276 71 276 87 c 0
 276 120 276 155 276 191 c 0xe8
 276 333 278 487 304 613 c 0xd8
EndSplineSet
EndChar

StartChar: E
Encoding: 69 69 40
AltUni2: 0000cb.ffffffff.0 0000ca.ffffffff.0 0000c9.ffffffff.0 0000c8.ffffffff.0
Width: 700
Flags: W
HStem: 9 61<315.299 549.791> 359 58<218.719 532.071> 707 78<391.029 505.904> 791 20G<158.5 175>
VStem: 50 50<177.834 459.601> 147 47<709.093 809.963>
LayerCount: 2
Fore
SplineSet
124 705 m 0
 144 747 147 757 147 795 c 0
 147 804 154 811 163 811 c 0
 163 811 163 811 164 811 c 0
 186 811 194 793 194 768 c 0
 194 718 163 638 157 609 c 0
 135 507 100 403 100 299 c 0
 100 294 100 290 100 286 c 0
 102 196 129 110 221 76 c 0
 249 65 281 62 313 62 c 0
 362 62 414 70 463 70 c 0
 492 70 520 67 545 59 c 0
 559 55 560 35 547 29 c 0
 516 14 473 9 430 9 c 0
 381 9 333 15 301 18 c 0
 195 27 102 81 68 187 c 0
 55 226 50 270 50 315 c 0
 50 398 67 486 81 559 c 0
 90 608 102 659 124 705 c 0
206 387 m 0
 201 390 198 396 198 401 c 0
 198 409 205 417 215 417 c 0
 218 417 222 417 226 417 c 0
 255 417 295 418 337 418 c 0
 419 418 507 414 541 390 c 0
 553 381 547 361 532 361 c 0
 508 360 469 359 427 359 c 0
 344 359 246 364 206 387 c 0
260 755 m 0
 254 758 251 764 251 769 c 0
 251 778 257 785 267 785 c 0
 268 785 l 0
 355 783 579 779 644 736 c 0
 658 727 651 706 634 707 c 0
 598 709 562 713 526 717 c 0
 476 723 318 724 260 755 c 0
EndSplineSet
EndChar

StartChar: F
Encoding: 70 70 41
Width: 587
Flags: W
HStem: 709 46<214.435 624.954>
VStem: 108 45<534.932 749>
LayerCount: 2
Fore
SplineSet
108 776 m 0
 108 786 116 793 126 791 c 0
 229 766 325 755 423 755 c 0
 492 755 562 761 636 771 c 0
 642 771 648 768 650 762 c 0
 652 759 653 756 654 752 c 0
 656 744 652 736 644 735 c 0
 575 719 494 709 413 709 c 0
 321 709 229 721 153 749 c 1
 153 744 153 740 153 735 c 0
 153 491 127 246 85 5 c 0
 84 -2 78 -7 71 -7 c 2
 64 -7 l 2
 56 -7 49 0 50 8 c 0
 69 252 108 497 108 741 c 0
 108 753 108 764 108 776 c 0
231 443 m 2
 231 450 237 456 244 457 c 0
 291 462 338 469 385 476 c 0
 394 477 401 470 401 462 c 2
 401 455 l 2
 401 449 397 443 390 441 c 0
 343 432 295 423 248 414 c 0
 239 412 231 419 231 428 c 2
 231 443 l 2
EndSplineSet
EndChar

StartChar: G
Encoding: 71 71 42
Width: 764
Flags: W
HStem: 21 39<227.406 471.806> 41 28<407.925 464.135> 211 33<355.625 442.137> 766 36<376.828 590.553>
VStem: 50 42<197.791 404.295> 659 41<100.717 217.506> 685 30<652.153 690.364>
LayerCount: 2
Fore
SplineSet
474 41 m 1x7a
 423 28 376 21 335 21 c 0
 138 21 50 161 50 321 c 0
 50 532 201 779 457 801 c 1
 467 801 476 802 486 802 c 0
 585 802 689 776 714 679 c 0
 715 676 715 674 715 671 c 0
 715 655 702 641 685 641 c 1
 685 734 567 766 476 766 c 0
 450 766 426 763 408 759 c 0
 270 726 196 605 142 485 c 0
 108 410 92 343 92 285 c 0
 92 144 186 60 344 60 c 0xba
 374 60 407 63 441 69 c 0
 443 69 444 69 446 69 c 0
 461 69 474 57 474 41 c 1x7a
318 244 m 0
 319 250 584 273 615 278 c 1
 678 264 700 214 700 151 c 0
 700 37 630 -120 608 -190 c 1
 593 -167 588 -141 588 -113 c 0
 588 -23 646 86 659 186 c 0
 659 187 659 188 659 189 c 0x3c
 659 206 645 220 628 220 c 0
 627 220 627 220 626 220 c 0
 584 217 510 211 445 211 c 0
 376 211 318 218 318 244 c 0
EndSplineSet
EndChar

StartChar: H
Encoding: 72 72 43
Width: 654
Flags: W
HStem: 4 21G<64.5 72.5> 385 53<145.528 285.958 287.933 494.661> 392 46<197.504 435.406> 800 20G<581.5 595.5>
VStem: 50 57<12.4787 243.094> 68 38<565.969 780.995> 559 46<596.919 818.665>
LayerCount: 2
Fore
SplineSet
50 24 m 0x9a
 57 270 67 516 68 762 c 0
 68 774 77 781 87 781 c 0
 96 781 105 776 106 764 c 0
 106 760 106 756 106 753 c 0x96
 106 733 103 710 103 693 c 0
 103 569 100 445 98 321 c 0
 98 294 107 218 107 146 c 0
 107 93 102 42 86 14 c 0
 82 7 76 4 69 4 c 0
 60 4 50 11 50 23 c 0
 50 24 l 0x9a
287 392 m 0xb2
 265 392 228 385 196 385 c 0
 183 385 170 386 160 390 c 0
 149 394 145 403 145 412 c 0
 145 425 154 438 170 438 c 2
 364 438 l 2xd2
 367 438 389 440 415 440 c 0
 456 440 507 435 507 413 c 0
 507 408 503 401 495 392 c 0
 488 385 466 383 438 383 c 0
 383 383 306 392 287 392 c 0xb2
559 790 m 0
 559 807 573 820 590 820 c 0
 591 820 591 820 592 820 c 0
 599 820 605 814 605 806 c 0
 604 705 592 603 584 502 c 0
 576 415 592 119 527 36 c 0
 524 32 519 30 514 30 c 0
 505 30 497 36 497 47 c 0
 497 48 l 0
 515 295 556 542 559 790 c 0
EndSplineSet
EndChar

StartChar: I
Encoding: 73 73 44
AltUni2: 0000cf.ffffffff.0 0000ce.ffffffff.0 0000cd.ffffffff.0 0000cc.ffffffff.0
Width: 771
Flags: W
HStem: 44 53<415.031 720.441> 758 54<57.125 358> 767 45<399.753 721.96>
VStem: 331 42<72.125 404.449> 341 35<180.803 529.528> 358 34<557.337 757.785>
LayerCount: 2
Fore
SplineSet
50 755 m 2xc4
 50 767 59 811 71 812 c 2xc4
 699 812 l 2
 700 812 l 0
 714 812 722 800 722 789 c 0
 722 779 716 769 703 768 c 0
 700 767 696 767 693 767 c 0
 649 764 604 764 559 763 c 0
 557 763 556 763 554 763 c 0
 531 763 492 767 455 767 c 0
 435 767 415 766 399 762 c 1
 393 754 392 731 392 711 c 0
 392 703 392 695 392 689 c 0
 392 686 392 683 392 681 c 0xa4
 388 633 386 584 384 536 c 0
 381 467 379 397 376 328 c 0xa8
 375 281 374 233 372 186 c 0
 372 172 373 157 373 142 c 0
 373 130 372 118 370 107 c 0
 370 105 370 103 370 100 c 0
 370 89 373 78 373 71 c 1
 407 75 541 97 633 97 c 0
 680 97 716 91 721 74 c 0
 722 72 722 69 722 67 c 0
 722 47 690 43 659 43 c 0
 641 43 624 44 613 44 c 0
 611 44 610 44 609 44 c 0
 538 41 467 36 396 32 c 0
 364 30 227 12 139 12 c 0
 97 12 67 16 64 28 c 0
 64 30 63 32 63 34 c 0
 63 55 93 49 116 52 c 0
 185 59 255 63 324 68 c 1
 327 112 329 156 331 199 c 0xb0
 335 260 338 320 341 381 c 0xa8
 347 506 358 632 358 758 c 1
 74 758 l 2
 61 757 50 741 50 754 c 2
 50 755 l 2xc4
EndSplineSet
EndChar

StartChar: J
Encoding: 74 74 45
Width: 522
Flags: W
HStem: 3 37<302.654 399.269>
VStem: 380 49<508.472 867.61> 435 38<84.7429 331.502>
LayerCount: 2
Fore
SplineSet
389 532 m 0
 384 585 380 634 380 683 c 0
 380 744 386 805 399 870 c 1
 411 870 422 870 434 870 c 1
 430 833 429 795 429 758 c 0
 429 577 466 397 473 214 c 0
 473 206 473 197 473 187 c 0
 473 113 462 13 376 4 c 0
 371 3 366 3 362 3 c 0
 271 3 180 90 122 146 c 0
 109 158 50 203 50 220 c 0
 50 221 l 0
 51 236 57 241 64 241 c 0
 75 241 92 226 101 217 c 0
 149 172 199 127 253 89 c 0
 286 67 326 40 360 40 c 0
 383 40 403 52 416 84 c 0
 430 117 435 150 435 182 c 0
 435 222 428 262 421 303 c 0
 409 379 398 455 389 532 c 0
EndSplineSet
EndChar

StartChar: K
Encoding: 75 75 46
Width: 631
Flags: W
HStem: -5 21G<54.5 61.5> 404 46<295.121 451.725> 782 10G<126.5 148 520 548.5>
VStem: 44 31<-4.90234 126.335> 119 36<656.733 802> 563 35<-41 167.745>
LayerCount: 2
Fore
SplineSet
44 -1 m 24
 44 55 56 91 58 141 c 0
 61 229 66 300 80 453 c 0
 85 505 94 606 98 635 c 0
 108 703 110 737 119 794 c 0
 120 798 124 802 129 802 c 2
 145 802 l 2
 151 802 155 797 155 792 c 0
 155 742 151 691 148 640 c 0
 142 549 127 465 127 375 c 0
 127 370 127 364 127 359 c 1
 169 407 l 1
 198 446 231 483 263 519 c 0
 312 573 363 627 415 678 c 0
 446 709 493 745 513 787 c 0
 515 790 518 792 522 792 c 2
 544 792 l 2
 553 792 557 782 551 776 c 0
 546 771 539 765 537 762 c 0
 511 733 485 704 459 675 c 0
 418 628 376 581 334 534 c 0
 288 484 226 433 196 372 c 0
 195 371 196 370 196 371 c 0
 218 379 226 388 238 398 c 0
 258 413 280 426 303 435 c 0
 328 445 355 450 382 450 c 0
 392 450 403 450 413 448 c 0
 467 438 509 404 537 358 c 0
 593 263 598 147 598 36 c 0
 598 14 598 -9 598 -31 c 0
 598 -36 593 -41 588 -41 c 2
 573 -41 l 2
 568 -41 563 -36 563 -31 c 0
 563 59 559 151 536 238 c 0
 521 291 498 352 450 384 c 0
 429 398 406 404 383 404 c 0
 358 404 332 397 307 387 c 0
 263 370 224 348 183 325 c 0
 156 310 150 310 130 295 c 0
 122 289 107 279 106 273 c 0
 96 166 87 101 75 0 c 0
 71 -2 65 -5 58 -5 c 0
 51 -5 44 -7 44 -1 c 24
EndSplineSet
EndChar

StartChar: L
Encoding: 76 76 47
Width: 528
Flags: W
HStem: 41 48<61.8281 391.564>
VStem: 113 37<547.131 802.592>
LayerCount: 2
Fore
SplineSet
113 710 m 0
 112 736 94 783 94 814 c 0
 94 831 99 843 113 846 c 1
 139 846 150 805 150 742 c 0
 150 563 67 206 48 115 c 0
 46 106 52 98 60 97 c 0
 99 91 138 89 178 89 c 0
 220 89 262 91 305 94 c 0
 319 95 394 107 450 107 c 0
 486 107 515 102 515 86 c 0
 515 83 515 80 513 77 c 0
 500 48 326 41 211 41 c 0
 174 41 143 42 126 43 c 0
 61 46 13 55 13 115 c 0
 13 119 13 124 14 129 c 0
 26 246 60 366 82 481 c 0
 96 554 113 624 113 698 c 0
 113 702 113 706 113 710 c 0
EndSplineSet
EndChar

StartChar: M
Encoding: 77 77 48
Width: 719
Flags: W
HStem: 403 38<317.939 401.056>
VStem: 265 35<679.018 885.462> 265 22<700.844 759.075 846.779 884.471> 543 55<760.892 885.758> 545 40<313.112 534.735 649.701 819.062> 558 27<405.742 583.802>
LayerCount: 2
Fore
SplineSet
113 196 m 0x84
 206 399 265 648 265 873 c 0
 265 887 284 891 290 879 c 0
 297 863 300 838 300 810 c 0xc4
 300 752 289 680 289 654 c 0
 288 637 287 615 287 591 c 0
 287 538 293 477 327 451 c 0
 336 444 345 441 355 441 c 0
 411 441 477 539 497 577 c 0
 521 625 535 678 543 731 c 0xb0
 544 740 545 749 545 760 c 0x88
 545 779 543 800 543 820 c 0
 543 839 545 857 550 872 c 0
 555 883 559 898 570 898 c 0
 575 898 582 894 590 886 c 0
 596 881 598 866 598 848 c 0x90
 598 810 589 755 588 735 c 0
 585 689 585 643 585 598 c 0x84
 585 575 585 552 585 529 c 0
 585 525 585 520 585 516 c 0x88
 585 334 586 127 669 -40 c 0
 675 -51 663 -63 652 -57 c 0
 610 -36 573 117 568 144 c 0
 552 230 550 317 550 405 c 0
 550 420 558 489 558 537 c 0
 558 561 556 580 550 584 c 0
 549 585 548 585 547 585 c 0
 536 585 528 538 521 526 c 0
 496 480 444 442 397 419 c 0
 378 410 360 403 342 403 c 0
 329 403 317 406 304 415 c 0
 283 430 260 518 256 518 c 0
 253 517 205 333 199 316 c 0
 179 264 157 212 135 161 c 0
 130 149 93 45 64 45 c 0
 60 45 56 47 52 52 c 0
 51 54 50 56 50 59 c 0
 50 90 106 180 113 196 c 0x84
EndSplineSet
EndChar

StartChar: N
Encoding: 78 78 49
AltUni2: 0000d1.ffffffff.0
Width: 594
Flags: W
HStem: -3 21G<61 72.5> 19 50<406.417 471.141> 788 20G<486 501>
VStem: 153 68<675 781.97> 167 48<546.826 729.306> 498 47<103.254 536.647>
LayerCount: 2
Fore
SplineSet
498 285 m 0xec
 498 298 498 310 498 323 c 0
 498 475 487 627 468 778 c 0
 467 779 467 780 467 781 c 0
 467 796 479 808 493 808 c 0
 494 808 495 808 496 808 c 0
 506 807 505 800 513 771 c 0
 525 726 522 669 526 623 c 0
 533 539 540 454 543 370 c 0
 543 350 545 320 545 285 c 0
 545 185 533 48 461 23 c 0
 454 20 447 19 440 19 c 0
 369 19 332 143 314 191 c 0
 281 279 270 381 232 467 c 0
 214 509 223 512 212 469 c 0
 198 413 205 346 194 288 c 0
 178 209 153 131 114 61 c 0
 107 48 81 -3 64 -3 c 0
 58 -3 53 3 50 19 c 0
 50 20 50 22 50 23 c 0
 50 54 98 126 109 157 c 0
 151 282 167 414 167 545 c 0xec
 167 573 166 601 165 628 c 0
 164 650 153 695 153 731 c 0
 153 760 160 784 186 784 c 0
 187 784 188 784 189 784 c 0
 215 782 221 767 221 747 c 0xf4
 221 726 215 701 215 681 c 0
 215 679 215 677 215 675 c 0
 226 531 286 386 339 253 c 0
 355 215 389 69 439 69 c 0
 447 69 456 73 465 82 c 0
 495 111 498 176 498 230 c 0
 498 247 498 262 498 275 c 0
 498 279 498 282 498 285 c 0xec
EndSplineSet
EndChar

StartChar: O
Encoding: 79 79 50
AltUni2: 0000d8.ffffffff.0 0000d6.ffffffff.0 0000d5.ffffffff.0 0000d4.ffffffff.0 0000d3.ffffffff.0 0000d2.ffffffff.0
Width: 832
Flags: W
HStem: 18 35<258.474 443.317> 746 35<298.415 464.828> 806 20G<591.5 651.5>
VStem: 50 45<218.585 507.573> 742 41<394.043 639.942>
LayerCount: 2
Fore
SplineSet
682 699 m 0
 669 714 582 789 582 816 c 0
 582 822 586 826 597 826 c 1
 706 752 783 666 783 533 c 0
 783 528 783 524 783 520 c 0
 778 403 748 283 675 189 c 0
 603 94 466 18 336 18 c 0
 278 18 222 33 174 68 c 0
 87 131 50 245 50 360 c 0
 50 467 82 575 137 647 c 0
 201 730 300 781 395 781 c 0
 470 781 543 749 594 676 c 0
 601 666 592 652 580 655 c 0
 547 666 520 703 491 718 c 0
 453 737 411 746 370 746 c 0
 362 746 355 746 347 745 c 0
 250 737 183 673 144 587 c 0
 116 526 95 436 95 349 c 0
 95 241 126 137 214 90 c 0
 261 65 308 53 353 53 c 0
 529 53 677 223 722 392 c 0
 733 434 742 491 742 542 c 0
 742 564 741 584 737 603 c 0
 730 641 707 670 682 699 c 0
EndSplineSet
EndChar

StartChar: P
Encoding: 80 80 51
Width: 718
Flags: W
HStem: 4 21G<296 309.5> 362 60<425.061 524.318> 758 54<321.124 520.554>
VStem: 285 39<4.86974 207.794> 301 46<440.107 652.392> 635 34<526.196 663.421>
LayerCount: 2
Fore
SplineSet
104 664 m 0xe4
 198 740 310 808 433 812 c 0
 440 812 440 812 443 812 c 0
 533 794 639 756 663 657 c 0
 667 639 669 620 669 601 c 0
 669 546 652 489 619 447 c 0
 600 422 502 362 449 362 c 0
 433 362 422 367 417 379 c 0
 416 382 415 384 415 386 c 0
 415 414 495 412 519 422 c 0
 560 439 590 467 610 507 c 0
 627 541 635 572 635 600 c 0
 635 705 524 758 414 758 c 0
 376 758 338 752 304 739 c 0
 245 717 191 684 140 647 c 0
 126 637 90 596 67 596 c 0
 62 596 58 598 55 601 c 0
 51 605 50 608 50 612 c 0
 50 632 93 656 104 664 c 0xe4
285 6 m 1xf4
 291 221 301 437 301 652 c 1
 306 653 310 654 314 654 c 0
 341 654 347 631 347 605 c 0xec
 347 588 344 570 344 556 c 0
 340 483 337 409 334 336 c 0
 330 262 327 189 324 116 c 0
 324 114 324 112 324 110 c 0
 324 96 326 76 326 58 c 0
 326 29 321 4 298 4 c 0
 294 4 290 5 285 6 c 1xf4
EndSplineSet
EndChar

StartChar: Q
Encoding: 81 81 52
Width: 977
Flags: W
HStem: 14 46<246.332 538.536> 712 34<689.2 755.213> 787 38<453.646 561.773>
VStem: 50 43<165.75 387.088> 619 35<171.375 276.983> 882 46<297.941 487.183>
LayerCount: 2
Fore
SplineSet
675 722 m 1
 675 722 700 745 741 746 c 1
 815 739 850 676 914 478 c 0
 916 473 917 469 918 464 c 0
 924 429 928 408 928 403 c 0
 928 285 855 186 711 106 c 1
 832 -57 l 2
 834 -59 835 -62 835 -65 c 2
 835 -81 l 2
 835 -88 828 -94 821 -94 c 2
 807 -94 l 2
 803 -94 799 -92 796 -89 c 0
 756 -31 716 26 676 83 c 1
 568 37 469 14 380 14 c 0
 379 14 379 14 378 14 c 0
 171 30 74 98 59 210 c 2
 53 247 l 2
 51 258 50 268 50 278 c 0
 50 288 51 298 53 309 c 0
 93 527 185 666 330 747 c 0
 334 750 342 755 346 758 c 0
 415 810 464 825 500 825 c 0
 512 825 522 823 531 821 c 0
 596 810 630 779 634 728 c 0
 634 722 631 717 626 715 c 2
 622 712 l 2
 616 709 608 711 605 717 c 0
 573 762 549 785 533 787 c 0
 532 787 531 787 530 787 c 0
 385 763 274 688 196 563 c 0
 127 457 93 361 93 277 c 2
 93 231 l 2
 93 134 177 77 344 60 c 0
 345 60 l 2
 425 60 l 2
 486 60 562 79 653 117 c 1
 630 169 619 211 619 243 c 2
 619 264 l 2
 619 271 625 277 633 277 c 2
 641 277 l 2
 648 277 654 272 654 265 c 0
 662 182 677 140 699 140 c 1
 821 213 882 296 882 391 c 2
 882 402 l 2
 882 410 881 418 879 426 c 0
 831 616 776 712 713 712 c 0
 706 712 700 711 693 709 c 0
 684 707 675 713 675 722 c 1
EndSplineSet
EndChar

StartChar: R
Encoding: 82 82 53
Width: 688
Flags: W
HStem: -4 21G<120 145> 382 38<290 355.807> 775 32<351.672 502.159>
VStem: 584 49<539.542 686.238>
LayerCount: 2
Fore
SplineSet
53 618 m 0
 119 702 237 765 405 807 c 0
 406 807 407 807 408 807 c 0
 536 807 606 753 630 620 c 0
 632 610 633 601 633 593 c 0
 633 477 492 435 393 408 c 1
 483 357 545 273 581 177 c 0
 589 156 639 68 639 22 c 0
 639 18 638 14 637 10 c 0
 634 0 620 -2 614 6 c 0
 560 78 536 174 502 255 c 0
 469 334 379 358 300 382 c 0
 294 384 290 389 290 395 c 2
 290 406 l 2
 290 413 296 419 303 420 c 0
 424 424 584 489 584 612 c 0
 584 632 580 653 571 676 c 0
 542 748 492 775 434 775 c 0
 313 775 157 660 82 595 c 0
 78 592 72 591 67 594 c 0
 64 595 61 596 59 597 c 0
 50 601 47 611 53 618 c 0
200 634 m 0
 201 641 206 647 213 647 c 2
 221 647 l 2
 229 647 235 641 235 633 c 0
 231 428 182 212 155 8 c 0
 154 1 148 -4 142 -4 c 2
 124 -4 l 2
 116 -4 109 4 111 12 c 0
 161 251 191 459 200 634 c 0
EndSplineSet
EndChar

StartChar: S
Encoding: 83 83 54
Width: 681
Flags: W
HStem: 6 36<281.514 496.46> 777 30<383.428 540.192>
VStem: 52 40<478.21 577.367> 564 41<92.0795 189.252>
LayerCount: 2
Fore
SplineSet
88 606 m 0
 168 731 356 807 498 807 c 0
 573 807 617 763 632 673 c 0
 632 672 632 671 632 670 c 0
 632 660 624 653 615 653 c 0
 611 653 606 655 603 659 c 0
 580 685 568 743 546 759 c 0
 527 772 502 777 475 777 c 0
 413 777 339 751 298 731 c 0
 242 703 92 605 92 521 c 0
 92 514 94 507 96 500 c 0
 109 463 178 445 214 429 c 0
 320 380 605 304 605 147 c 0
 605 125 599 102 587 77 c 0
 560 20 492 6 428 6 c 0
 399 6 371 9 348 12 c 0
 287 19 228 36 172 61 c 0
 143 74 116 89 89 106 c 0
 79 113 50 134 50 146 c 0
 50 149 52 151 55 153 c 0
 63 157 72 153 76 145 c 0
 98 106 165 90 202 80 c 0
 260 64 335 42 404 42 c 0
 441 42 475 48 505 64 c 0
 547 86 564 111 564 137 c 0
 564 211 432 292 375 322 c 0
 325 348 273 373 221 394 c 0
 178 410 123 416 84 443 c 0
 61 460 52 482 52 507 c 0
 52 541 69 578 88 606 c 0
EndSplineSet
EndChar

StartChar: T
Encoding: 84 84 55
Width: 599
Flags: W
HStem: 9 21G<273.5 283.5> 664 36<-65.9707 183.924> 761 34<500.442 654.994>
VStem: 255 41<9.40138 25 99.5391 225.526>
LayerCount: 2
Fore
SplineSet
637 795 m 0
 647 795 655 788 655 778 c 0
 655 769 647 761 638 761 c 0
 556 758 443 738 298 699 c 1
 297 474 297 250 296 26 c 0
 296 16 288 9 279 9 c 2
 278 9 l 2
 269 9 262 16 261 25 c 0
 257 119 255 211 255 304 c 0
 255 431 258 558 263 687 c 1
 158 666 55 665 -51 664 c 0
 -61 664 -70 674 -68 684 c 0
 -67 689 -66 694 -64 698 c 0
 -61 705 -53 710 -45 708 c 0
 -12 702 20 700 53 700 c 0
 248 700 443 790 637 795 c 0
EndSplineSet
EndChar

StartChar: U
Encoding: 85 85 56
AltUni2: 0000dc.ffffffff.0 0000db.ffffffff.0 0000da.ffffffff.0 0000d9.ffffffff.0
Width: 763
Flags: W
HStem: 9 47<255.367 468.032> 794 20G<155 167 671 680.5>
VStem: 50 40<240.844 491.129> 676 38<359.607 759.851>
LayerCount: 2
Fore
SplineSet
142 802 m 0
 144 809 151 814 159 814 c 2
 162 814 l 2
 172 814 180 806 180 797 c 0
 177 712 134 609 117 528 c 0
 106 476 90 421 90 368 c 0
 90 367 90 366 90 365 c 0
 90 200 185 56 357 56 c 0
 358 56 360 56 362 56 c 0
 618 60 676 314 676 549 c 0
 676 638 668 723 659 792 c 0
 658 803 666 812 676 812 c 0
 685 812 692 806 694 797 c 0
 708 720 714 643 714 565 c 0
 714 499 710 433 700 367 c 0
 667 135 532 9 356 9 c 0
 327 9 296 13 265 20 c 0
 100 57 50 186 50 335 c 0
 50 497 109 683 142 802 c 0
EndSplineSet
EndChar

StartChar: V
Encoding: 86 86 57
Width: 695
Flags: W
LayerCount: 2
Fore
SplineSet
343 3 m 2
 267 261 l 2
 267 262 267 262 267 263 c 0
 235 342 201 420 166 498 c 0
 144 547 121 595 99 644 c 0
 86 671 62 707 51 741 c 0
 50 743 50 746 50 748 c 0
 50 760 60 769 72 769 c 0
 77 769 82 767 86 763 c 0
 139 712 176 584 197 543 c 0
 240 462 298 238 350 145 c 0
 352 145 415 351 416 353 c 0
 465 475 477 521 543 633 c 0
 560 660 585 707 609 734 c 0
 613 739 620 741 626 740 c 0
 638 738 646 728 646 716 c 0
 646 712 645 707 642 703 c 0
 540 546 392 264 386 13 c 0
 386 1 376 -9 363 -9 c 2
 360 -9 l 2
 352 -9 345 -4 343 3 c 2
EndSplineSet
EndChar

StartChar: W
Encoding: 87 87 58
Width: 929
Flags: W
HStem: -9 64<454.275 488.91>
LayerCount: 2
Fore
SplineSet
66 648 m 2
 50 747 l 2
 49 754 53 761 60 762 c 0
 61 762 61 762 62 762 c 0
 75 762 80 740 81 730 c 0
 92 655 102 579 113 503 c 0
 123 427 134 350 144 273 c 2
 174 63 l 2
 175 51 188 45 199 50 c 0
 211 57 223 67 232 78 c 0
 278 129 310 190 345 248 c 0
 350 257 357 266 368 263 c 0
 374 262 378 258 381 253 c 0
 412 200 436 143 452 84 c 0
 455 71 464 55 476 55 c 0
 478 55 480 56 483 57 c 0
 487 59 490 63 491 67 c 0
 575 274 678 474 803 659 c 0
 814 676 827 691 843 704 c 0
 850 709 858 715 867 714 c 0
 871 714 876 711 878 707 c 0
 882 701 878 695 875 690 c 0
 859 662 841 635 823 609 c 0
 709 438 611 257 531 67 c 0
 523 47 513 28 501 10 c 0
 494 1 487 -9 474 -9 c 0
 471 -9 468 -8 465 -7 c 0
 457 -4 451 0 445 7 c 0
 404 56 395 123 376 184 c 0
 373 191 370 199 361 199 c 0
 356 199 351 197 347 193 c 0
 296 139 270 65 219 11 c 0
 209 1 197 -9 184 -9 c 0
 182 -9 181 -8 179 -8 c 0
 170 -6 162 0 157 8 c 0
 143 26 138 49 134 72 c 0
 100 259 83 448 67 637 c 0
 67 641 67 644 66 648 c 2
EndSplineSet
EndChar

StartChar: X
Encoding: 88 88 59
Width: 603
Flags: W
HStem: 1 21G<60 66 530 541> 792 3G<62 82 506 513.5>
VStem: 50 45<737.49 792> 516 38<1.10796 60.3735>
LayerCount: 2
Fore
SplineSet
282 481 m 0
 341 549 411 658 493 806 c 0
 496 813 503 815 509 815 c 0
 518 815 526 810 527 799 c 0
 527 798 527 797 527 796 c 0
 527 748 452 662 431 630 c 2
 306 427 l 2
 302 421 303 412 308 406 c 0
 385 320 554 144 554 19 c 0
 554 9 546 1 536 1 c 2
 534 1 l 2
 526 1 518 7 516 15 c 0
 504 65 432 177 300 351 c 0
 297 356 291 357 286 357 c 0
 278 357 271 353 269 345 c 0
 247 274 187 164 88 14 c 0
 83 7 74 4 66 8 c 0
 65 8 l 0
 55 12 51 24 56 33 c 2
 221 353 l 2
 236 381 242 400 242 416 c 0
 242 447 217 468 179 526 c 0
 133 598 71 683 50 770 c 0
 48 781 56 792 68 792 c 2
 78 792 l 2
 86 792 92 788 95 781 c 0
 108 747 161 648 253 484 c 0
 259 473 274 471 282 481 c 0
EndSplineSet
EndChar

StartChar: Y
Encoding: 89 89 60
AltUni2: 0000dd.ffffffff.0
Width: 605
Flags: W
HStem: -1 21G<255 290.5> 355 34<214.442 269.998 316 382.041> 780 20G<121 133>
VStem: 50 49<514.884 706.974> 270 46<134.227 354.952> 510 46<537.336 749.273>
LayerCount: 2
Fore
SplineSet
475 812 m 2
 480 814 l 1
 496 822 l 2
 499 823 503 822 505 819 c 0
 539 765 556 713 556 663 c 2
 556 652 l 2
 556 651 556 651 556 651 c 0
 535 457 458 358 323 355 c 0
 319 354 316 351 316 348 c 2
 316 343 l 2
 316 226 309 114 296 5 c 0
 295 1 292 -1 289 -1 c 2
 257 -1 l 2
 253 -1 250 2 250 6 c 0
 257 100 264 161 269 192 c 0
 271 201 270 211 270 221 c 2
 270 348 l 2
 270 351 267 354 263 355 c 0
 152 358 89 440 63 532 c 0
 54 560 50 583 50 605 c 0
 50 627 54 649 60 676 c 0
 61 684 64 692 67 700 c 0
 99 776 110 800 132 800 c 0
 134 799 137 799 139 799 c 0
 152 795 155 794 161 792 c 0
 165 788 168 785 166 782 c 0
 110 697 99 672 99 624 c 0
 99 621 99 619 99 617 c 2
 99 611 l 2
 99 608 99 604 99 600 c 0
 120 459 184 389 293 389 c 2
 304 389 l 2
 411 389 478 458 506 597 c 0
 509 609 510 622 510 635 c 2
 510 653 l 2
 510 675 507 696 500 716 c 0
 490 745 480 774 470 804 c 0
 468 808 470 810 475 812 c 2
EndSplineSet
EndChar

StartChar: Z
Encoding: 90 90 61
Width: 863
Flags: W
HStem: -2 36<383.181 740.506> 721 46<99.2154 323.057> 801 20G<648 763>
VStem: 50 72<88.4151 180.704>
LayerCount: 2
Fore
SplineSet
128 767 m 0
 338 769 544 791 752 821 c 0
 753 821 755 821 756 821 c 0
 770 821 782 810 782 797 c 0
 782 795 781 793 781 791 c 0
 770 748 673 726 637 705 c 0
 550 657 467 601 393 535 c 0
 282 436 130 267 122 107 c 0
 121 99 127 92 134 90 c 0
 263 56 401 34 538 34 c 0
 625 34 711 43 794 63 c 0
 809 67 821 49 810 37 c 0
 784 6 707 -2 628 -2 c 0
 539 -2 449 8 427 10 c 0
 368 13 86 1 54 76 c 0
 51 82 50 90 50 98 c 0
 50 164 124 287 149 330 c 0
 201 422 270 502 351 569 c 0
 448 649 562 705 670 767 c 1
 484 752 301 723 114 721 c 0
 106 721 98 728 98 737 c 0
 98 754 112 767 128 767 c 0
EndSplineSet
EndChar

StartChar: bracketleft
Encoding: 91 91 62
Width: 524
Flags: W
HStem: -41 46<252.138 468.538> 806 32<182.774 329.626>
VStem: 50 53<53.6154 110.287> 92 39<129.894 450.163>
LayerCount: 2
Fore
SplineSet
113 666 m 0xd0
 119 707 131 838 194 838 c 0
 215 838 236 838 258 838 c 0
 315 838 373 837 428 825 c 0
 447 820 474 808 474 796 c 0
 474 790 467 783 449 778 c 0
 443 776 435 776 427 776 c 0
 394 776 350 788 323 791 c 0
 300 793 252 806 219 806 c 0
 210 806 203 805 197 803 c 0
 155 786 156 679 152 642 c 0
 145 571 140 500 137 429 c 0
 135 385 133 340 131 296 c 0
 131 292 131 287 131 282 c 0xd0
 131 255 133 224 133 194 c 0
 133 171 132 148 126 129 c 0
 124 124 110 116 107 105 c 0
 105 95 103 88 103 82 c 0
 103 70 108 63 122 55 c 0
 150 38 200 36 231 30 c 0
 281 20 330 12 380 5 c 0
 395 2 460 2 469 -8 c 0
 470 -10 471 -16 470 -21 c 0
 470 -33 460 -41 449 -41 c 0
 332 -30 181 -28 78 28 c 0
 57 39 50 50 50 61 c 0xe0
 50 76 63 94 74 121 c 0
 91 164 92 200 92 246 c 0
 92 386 92 528 113 666 c 0xd0
EndSplineSet
EndChar

StartChar: backslash
Encoding: 92 92 63
Width: 635
Flags: W
LayerCount: 2
Fore
SplineSet
175 519 m 0
 125 579 61 671 50 755 c 0
 50 756 50 757 50 757 c 0
 50 767 59 775 68 775 c 0
 71 775 73 774 76 773 c 0
 91 764 89 745 102 718 c 0
 127 667 159 620 191 574 c 0
 243 500 297 428 353 358 c 0
 388 312 424 267 460 223 c 0
 479 199 498 176 517 153 c 0
 528 140 586 87 586 70 c 0
 585 50 572 41 559 41 c 0
 555 41 551 42 547 44 c 0
 536 49 522 83 514 93 c 0
 474 150 431 204 387 259 c 0
 317 346 246 433 175 519 c 0
EndSplineSet
EndChar

StartChar: bracketright
Encoding: 93 93 64
Width: 457
Flags: W
HStem: 2 35<125.473 324.996> 11 49<51.0728 236.111> 807 51<55.1325 294.654>
VStem: 345 40<153.955 514.501> 357 40<64.8199 558> 367 41<469.538 755.919>
LayerCount: 2
Fore
SplineSet
54 830 m 0xa4
 55 860 107 851 135 858 c 1
 226 858 358 847 397 747 c 0xa8
 406 726 408 703 408 679 c 0xa4
 408 645 402 609 400 577 c 0
 395 504 387 432 385 359 c 0
 385 353 385 348 385 342 c 0xb0
 385 279 397 214 397 151 c 0
 397 137 396 124 395 111 c 0
 386 21 328 2 260 2 c 0xa8
 218 2 173 9 133 11 c 0
 131 11 129 11 127 11 c 0
 118 11 107 10 97 10 c 0
 88 10 80 11 74 13 c 0
 49 22 59 6 52 30 c 0
 50 35 50 40 50 43 c 0
 50 57 59 60 72 60 c 0x68
 82 60 94 58 104 57 c 0
 154 52 211 37 262 37 c 0
 268 37 274 38 279 38 c 0
 341 42 357 86 357 135 c 0xa8
 357 149 355 164 353 179 c 0
 347 224 345 267 345 310 c 0xb0
 345 392 353 473 358 558 c 0
 360 590 367 634 367 674 c 0
 367 701 364 726 354 746 c 0
 330 790 269 801 225 807 c 0
 216 808 205 809 195 809 c 0
 173 809 150 807 128 807 c 0
 109 807 91 808 75 813 c 0
 55 818 54 805 54 830 c 0xa4
EndSplineSet
EndChar

StartChar: underscore
Encoding: 95 95 65
Width: 661
Flags: W
HStem: -25 49<51 263.633> -5 29<297.968 419.875>
LayerCount: 2
Fore
SplineSet
228 24 m 0x80
 356 28 484 35 611 44 c 1
 611 32 612 24 612 18 c 0
 612 3 608 2 585 -2 c 0
 571 -5 557 -5 542 -5 c 0
 528 -5 514 -5 501 -5 c 0
 497 -5 494 -5 490 -5 c 0x40
 344 -11 197 -18 51 -25 c 1
 51 -12 50 -3 50 3 c 0
 50 14 54 16 74 21 c 0
 91 25 110 26 129 26 c 0
 158 26 187 24 214 24 c 0
 219 24 223 24 228 24 c 0x80
EndSplineSet
EndChar

StartChar: grave
Encoding: 96 96 66
Width: 302
Flags: W
HStem: 623 170
LayerCount: 2
Fore
SplineSet
175 720 m 2
 249 645 l 2
 259 635 248 618 235 623 c 0
 233 624 232 624 230 625 c 0
 207 637 186 653 164 666 c 0
 138 682 50 720 50 760 c 0
 50 764 51 767 52 771 c 0
 59 787 69 793 80 793 c 0
 113 793 158 738 175 720 c 2
EndSplineSet
EndChar

StartChar: a
Encoding: 97 97 67
AltUni2: 0000e5.ffffffff.0 0000e4.ffffffff.0 0000e3.ffffffff.0 0000e2.ffffffff.0 0000e1.ffffffff.0 0000e0.ffffffff.0
Width: 599
Flags: W
HStem: -4 25<493.829 546.716> 4 41<143.326 301.552> 346 46<231.506 359.319>
VStem: 50 50<80.5651 198.521>
LayerCount: 2
Fore
SplineSet
59 88 m 0x70
 53 103 50 120 50 136 c 0
 50 256 204 392 313 392 c 0
 318 392 322 391 326 391 c 1
 527 391 339 25 541 21 c 0xb0
 549 20 553 10 547 4 c 0x70
 541 -2 531 -4 521 -4 c 0xb0
 495 -4 461 10 448 23 c 0
 401 69 415 164 407 224 c 1
 395 143 362 42 276 11 c 0
 263 6 247 4 229 4 c 0
 165 4 81 34 59 88 c 0x70
236 330 m 0
 152 292 115 209 100 125 c 1
 100 124 100 123 100 123 c 0
 100 69 177 45 234 45 c 0x70
 249 45 263 46 274 50 c 0
 340 73 389 172 389 249 c 0
 389 264 387 278 383 291 c 0
 371 330 340 346 305 346 c 0
 283 346 259 340 236 330 c 0
EndSplineSet
EndChar

StartChar: b
Encoding: 98 98 68
Width: 560
Flags: W
HStem: 4 37<134.186 397.064> 305 38<184.655 337.462> 778 20G<69 84.5>
VStem: 50 42<68.4695 200.34 247 726.835> 56 49<602.15 795.375> 471 40<88.9625 191.935>
LayerCount: 2
Fore
SplineSet
54 416 m 0xec
 53 448 53 479 53 511 c 0
 53 605 56 700 56 795 c 1
 62 797 67 798 71 798 c 0
 98 798 105 767 105 729 c 0xec
 105 683 94 625 94 601 c 0
 94 546 95 492 95 438 c 0
 95 374 94 311 90 247 c 1
 142 309 199 343 264 343 c 0
 297 343 333 334 370 316 c 0
 438 283 511 220 511 137 c 0
 511 136 l 0
 511 21 372 4 252 4 c 0
 201 4 153 7 120 7 c 0
 119 7 117 7 116 7 c 0
 99 7 88 4 80 4 c 0
 68 4 63 12 57 55 c 0
 52 88 50 113 50 138 c 0xf4
 50 184 56 229 56 322 c 0
 56 349 55 380 54 416 c 0xec
100 158 m 0
 95 137 92 121 92 108 c 0xf4
 92 55 136 61 214 42 c 1
 224 42 236 41 249 41 c 0
 317 41 420 50 455 92 c 0
 466 106 471 120 471 136 c 0
 471 189 412 247 371 270 c 0
 335 290 293 305 253 305 c 0
 219 305 187 295 159 271 c 0
 125 242 110 199 100 158 c 0
EndSplineSet
EndChar

StartChar: c
Encoding: 99 99 69
AltUni2: 0000e7.ffffffff.0
Width: 377
Flags: W
HStem: 2 41<125.793 269.255> 366 35<166.1 248.715>
VStem: 50 41<80.274 272.175>
LayerCount: 2
Fore
SplineSet
113 20 m 0
 69 54 50 110 50 168 c 0
 50 280 122 401 233 401 c 0
 240 401 247 401 254 400 c 1
 285 400 313 345 313 316 c 0
 313 306 309 299 301 299 c 0
 295 299 287 303 275 312 c 0
 249 333 254 366 216 366 c 0
 210 366 203 365 195 363 c 0
 150 353 109 294 98 252 c 0
 93 235 91 208 91 179 c 0
 91 145 95 110 104 91 c 0
 123 56 152 43 185 43 c 0
 227 43 274 64 312 82 c 0
 318 85 326 81 328 74 c 0
 328 72 329 69 329 67 c 0
 329 24 255 2 191 2 c 0
 158 2 128 8 113 20 c 0
EndSplineSet
EndChar

StartChar: d
Encoding: 100 100 70
Width: 503
Flags: W
HStem: 3 45<156.63 332.184> 419 36<179.636 290.911> 787 20G<422.5 430>
VStem: 50 41<118.321 303.274> 341 31<70.0175 123.847> 405 49<573.625 806.863>
LayerCount: 2
Fore
SplineSet
394 365 m 0
 403 504 405 643 405 783 c 0
 405 796 416 807 429 807 c 0
 431 807 433 807 435 806 c 0
 451 801 454 786 454 767 c 0
 454 749 451 728 451 711 c 0
 450 606 446 501 436 396 c 0
 425 287 409 182 372 81 c 0
 369 73 363 70 357 70 c 0
 349 70 341 76 341 86 c 0
 341 87 l 0
 344 152 387 229 387 293 c 0
 387 310 384 327 375 342 c 0
 362 365 273 415 250 418 c 0
 244 419 239 419 234 419 c 0
 197 419 172 401 148 369 c 0
 111 320 91 260 91 205 c 0
 91 120 138 48 236 48 c 0
 247 48 259 49 271 51 c 0
 291 54 319 58 339 58 c 0
 351 58 359 57 359 51 c 0
 359 46 353 39 337 28 c 0
 312 11 277 3 241 3 c 0
 172 3 96 33 72 85 c 0
 57 118 50 155 50 193 c 0
 50 262 73 333 113 383 c 0
 153 432 197 455 241 455 c 0
 294 455 347 421 393 364 c 0
 394 364 394 364 394 365 c 0
EndSplineSet
EndChar

StartChar: e
Encoding: 101 101 71
AltUni2: 0000eb.ffffffff.0 0000ea.ffffffff.0 0000e9.ffffffff.0 0000e8.ffffffff.0
Width: 484
Flags: W
HStem: 2 41<135.137 314.323> 168 53<203.24 343.324> 334 44<210.038 390.321>
VStem: 50 37<89.7665 221.547> 397 38<259.291 322.217>
LayerCount: 2
Fore
SplineSet
76 243 m 0
 133 351 237 378 350 378 c 0
 354 378 358 378 362 378 c 1
 415 364 435 337 435 307 c 0
 435 251 365 186 304 176 c 0
 291 174 264 168 240 168 c 0
 218 168 199 173 199 191 c 0
 199 195 200 200 203 206 c 0
 208 218 221 221 237 221 c 0
 254 221 274 217 290 217 c 0
 293 217 297 218 300 218 c 0
 347 225 397 265 397 296 c 0
 397 313 381 328 340 332 c 0
 331 333 322 334 312 334 c 0
 214 334 108 277 90 177 c 0
 88 167 87 157 87 148 c 0
 87 73 150 43 222 43 c 0
 245 43 268 46 291 51 c 0
 294 52 350 82 378 82 c 0
 387 82 393 79 393 70 c 0
 393 66 392 62 390 56 c 0
 375 19 273 3 230 2 c 0
 227 2 225 2 222 2 c 0
 116 2 50 62 50 146 c 0
 50 176 58 209 76 243 c 0
EndSplineSet
EndChar

StartChar: f
Encoding: 102 102 72
Width: 385
Flags: W
HStem: 555 42<169.195 303.066> 779 20G<556 567.5>
VStem: 112 56<379.017 445.129> 134 34<-3.42896 182> 541 37<761.502 798.985>
LayerCount: 2
Fore
SplineSet
541 787 m 0xe8
 544 794 552 799 560 799 c 2
 562 799 l 2
 573 799 580 789 578 779 c 0
 563 715 482 669 432 640 c 0
 381 612 322 578 266 563 c 0
 241 557 228 555 217 555 c 0
 198 555 187 560 147 560 c 1
 153 446 168 342 168 227 c 1
 317 273 l 1
 319 270 320 268 320 265 c 0
 320 230 168 193 168 193 c 1
 168 193 164 -109 127 -206 c 0
 92 -299 32 -381 -61 -420 c 0
 -67 -422 -74 -420 -76 -414 c 0
 -80 -407 -78 -398 -71 -393 c 0
 123 -269 134 -27 134 182 c 1xd8
 85 169 46 162 17 160 c 0
 3 159 -5 174 3 185 c 0
 27 215 106 215 135 222 c 1
 121 327 112 457 112 600 c 0
 112 610 120 617 129 616 c 0
 156 612 180 598 207 597 c 0
 211 597 214 597 218 597 c 0
 256 597 291 610 327 626 c 0
 396 656 505 718 541 787 c 0xe8
EndSplineSet
EndChar

StartChar: g
Encoding: 103 103 73
Width: 550
Flags: W
HStem: -312 33<295.208 409.279> 4 43<195.851 384.194> 285 40<256.511 384.047>
VStem: 114 41<82.6679 196.629> 395 47<223.571 273.254> 450 51<-83.8595 80 117.842 177.065>
LayerCount: 2
Fore
SplineSet
138 60 m 0
 121 81 114 105 114 130 c 0
 114 223 219 324 307 324 c 1
 312 324 317 325 321 325 c 0
 378 325 433 297 442 240 c 0
 444 231 437 222 427 222 c 0
 412 222 399 232 395 246 c 0
 386 273 362 285 332 285 c 0
 260 285 155 217 155 139 c 0
 155 125 158 111 166 96 c 0
 187 57 240 47 288 47 c 0
 304 47 320 48 334 50 c 0
 410 61 437 120 454 190 c 0
 455 195 461 198 465 195 c 0
 491 179 501 108 501 26 c 0
 501 -94 480 -237 460 -266 c 0
 436 -300 405 -312 372 -312 c 0
 348 -312 323 -306 298 -297 c 0
 240 -276 81 -202 51 -130 c 0
 50 -128 50 -126 50 -124 c 0
 50 -114 58 -107 67 -107 c 0
 70 -107 73 -107 76 -109 c 0
 162 -158 259 -279 360 -279 c 0
 364 -279 368 -278 372 -278 c 0
 444 -271 460 -179 460 -87 c 0
 460 -20 451 47 450 80 c 1
 450 25 389 4 320 4 c 0
 246 4 164 28 138 60 c 0
EndSplineSet
EndChar

StartChar: h
Encoding: 104 104 74
Width: 438
Flags: W
HStem: 342 43<199.357 288.058>
VStem: 50 23<-0.699219 22.3598> 89 34<295 494.828> 107 38<537.023 754.856> 355 21<4.75 36.6737>
LayerCount: 2
Fore
SplineSet
107 740 m 0xd8
 109 752 121 759 132 755 c 2
 140 752 146 744 145 736 c 0xd8
 131 589 123 442 123 295 c 1
 165 321 193 385 244 385 c 0
 257 385 272 380 289 370 c 0
 309 357 325 338 335 316 c 0
 361 255 389 149 389 73 c 0
 389 45 385 21 377 5 c 0
 377 4 376 4 376 3 c 0
 366 -1 355 7 355 17 c 0
 354 121 327 264 286 324 c 0
 278 335 266 342 253 342 c 0
 248 342 244 341 240 340 c 0
 179 322 168 289 135 227 c 0
 130 217 109 157 108 146 c 0
 102 107 97 47 73 0 c 0
 73 -1 72 -2 71 -2 c 0
 62 -3 53 2 50 11 c 0
 50 12 l 0
 50 125 90 156 90 310 c 0
 90 321 89 334 89 347 c 1
 89 354 89 362 89 369 c 0xe8
 89 412 88 456 88 499 c 0
 88 580 91 662 107 740 c 0xd8
EndSplineSet
EndChar

StartChar: i
Encoding: 105 105 75
AltUni2: 0000ef.ffffffff.0 0000ee.ffffffff.0 0000ed.ffffffff.0 0000ec.ffffffff.0
Width: 169
Flags: W
HStem: -5 21G<67 92> 412 74<68.5035 100.284>
VStem: 50 70<431.669 467.053> 57 45<-5 219.094>
LayerCount: 2
Fore
SplineSet
94 484 m 0xe0
 96 485 99 486 101 486 c 2
 106 486 l 2
 115 486 121 479 120 470 c 0
 115 445 94 422 69 412 c 0
 60 408 49 415 50 425 c 0
 51 452 69 468 94 484 c 0xe0
68 290 m 0
 68 297 74 304 81 304 c 2
 99 304 l 2
 107 304 113 297 112 289 c 0
 107 196 102 102 102 9 c 0
 102 1 96 -5 88 -5 c 2
 71 -5 l 2
 63 -5 57 2 57 10 c 0xd0
 63 103 67 196 68 290 c 0
EndSplineSet
EndChar

StartChar: j
Encoding: 106 106 76
Width: 378
Flags: W
HStem: -452 45<150.748 253.416> 392 21G<198 205.5>
VStem: 292 37<-340.365 -4.19415>
LayerCount: 2
Fore
SplineSet
232 224 m 0
 236 225 240 227 244 228 c 0
 250 231 257 228 259 222 c 0
 300 94 329 -49 329 -188 c 0
 329 -230 326 -272 320 -313 c 0
 310 -378 289 -438 219 -450 c 0
 213 -451 207 -452 200 -452 c 0
 143 -452 61 -410 50 -354 c 0
 49 -346 57 -339 65 -342 c 0
 122 -366 174 -407 213 -407 c 0
 244 -407 267 -383 281 -310 c 0
 289 -270 292 -229 292 -187 c 0
 292 -53 258 86 224 211 c 0
 222 217 226 223 232 224 c 0
262 482 m 0
 265 485 268 486 272 486 c 2
 286 486 l 2
 294 486 299 478 296 471 c 0
 283 441 248 401 223 395 c 0
 214 393 208 392 203 392 c 0
 193 392 189 395 189 401 c 0
 189 420 240 464 262 482 c 0
EndSplineSet
EndChar

StartChar: k
Encoding: 107 107 77
Width: 412
Flags: W
HStem: -1 21G<66 81.5 314 327.5>
VStem: 50 43<-1.1524 217.089> 97 34<552.901 764.506> 303 36<-0.919189 68.929>
LayerCount: 2
Fore
SplineSet
141 253 m 1
 202 211 l 2
 287 153 334 117 339 15 c 0
 339 6 332 -1 323 -1 c 2
 318 -1 l 2
 310 -1 304 5 303 12 c 0
 283 127 214 162 105 220 c 1
 105 158 101 89 93 13 c 0
 93 4 86 -2 77 -2 c 0
 55 0 50 13 50 31 c 0
 50 43 52 58 54 73 c 0
 63 148 69 223 74 298 c 0
 83 446 97 603 97 749 c 0
 98 758 104 765 113 765 c 2
 116 765 l 2
 125 765 132 757 131 749 c 0
 127 603 116 446 116 300 c 1
 215 357 290 410 340 436 c 0
 353 443 368 429 361 415 c 0
 336 366 210 316 178 290 c 0
 158 274 144 260 141 253 c 1
EndSplineSet
EndChar

StartChar: l
Encoding: 108 108 78
Width: 193
Flags: W
VStem: 107 36<722.636 802.9>
LayerCount: 2
Fore
SplineSet
85 574 m 2
 107 792 l 2
 108 802 116 809 124 806 c 0
 127 804 130 803 134 803 c 0
 141 801 146 791 143 782 c 0
 113 689 90 254 75 7 c 0
 74 -13 50 -12 50 9 c 0
 54 231 81 491 85 574 c 2
EndSplineSet
EndChar

StartChar: m
Encoding: 109 109 79
Width: 649
Flags: W
HStem: 9 21G<71.5 88 565.5 579> 336 51<183.935 277.585> 358 53<436.833 528.917>
VStem: 50 48<5.1001 213.263> 555 35<9.12531 185.374> 567 33<12.0896 304.281>
LayerCount: 2
Fore
SplineSet
360 291 m 1xd4
 388 366 429 406 485 411 c 0
 493 412 501 410 508 406 c 0
 583 361 600 277 600 188 c 0xb4
 600 132 594 75 590 24 c 0
 589 16 583 9 575 9 c 2
 570 9 l 2
 561 9 554 18 555 28 c 0xb8
 557 74 567 140 567 202 c 0
 567 275 553 341 495 356 c 0
 490 357 485 358 481 358 c 0xb4
 407 358 384 207 334 185 c 0
 325 181 314 189 314 201 c 0
 310 284 278 336 235 336 c 0
 206 336 173 313 139 263 c 0
 108 217 98 166 98 114 c 0
 98 83 101 52 106 21 c 0
 108 13 105 5 99 2 c 0
 94 0 90 -1 86 -1 c 0
 57 -1 50 62 50 104 c 0
 50 115 50 124 51 130 c 0
 60 203 102 307 153 351 c 0
 183 376 208 387 231 387 c 0
 279 387 316 342 360 291 c 1xd4
EndSplineSet
EndChar

StartChar: n
Encoding: 110 110 80
AltUni2: 0000f1.ffffffff.0
Width: 431
Flags: W
HStem: 1 21G<61 85 347.5 371> 366 48<173.32 281.044>
VStem: 50 45<1 224.182> 337 45<1 226.262>
LayerCount: 2
Fore
SplineSet
50 20 m 0
 51 165 65 413 211 413 c 1
 216 413 221 414 226 414 c 0
 381 414 382 169 382 20 c 0
 382 10 375 1 367 1 c 2
 352 1 l 2
 343 1 337 11 337 22 c 0
 339 44 340 70 340 98 c 0
 340 216 319 366 234 366 c 0
 219 366 203 362 184 352 c 0
 104 310 94 199 94 96 c 0
 94 70 95 44 95 20 c 0
 95 10 89 1 81 1 c 2
 65 1 l 2
 57 1 50 10 50 20 c 0
EndSplineSet
EndChar

StartChar: o
Encoding: 111 111 81
AltUni2: 0000f8.ffffffff.0 0000f6.ffffffff.0 0000f5.ffffffff.0 0000f4.ffffffff.0 0000f3.ffffffff.0 0000f2.ffffffff.0
Width: 437
Flags: W
HStem: 5 44<141.482 277.198> 382 35<173.89 243.134>
VStem: 50 40<106.354 265.125> 343 45<111.77 274.501>
LayerCount: 2
Fore
SplineSet
182 6 m 0
 90 15 50 97 50 185 c 0
 50 292 108 408 204 417 c 0
 211 418 219 416 226 413 c 0
 320 371 388 293 388 190 c 0
 388 181 387 170 386 160 c 0
 374 63 296 5 202 5 c 0
 196 5 189 5 182 6 c 0
229 375 m 1
 223 380 216 382 209 382 c 0
 160 382 102 273 90 200 c 1
 90 196 90 192 90 189 c 0
 90 108 136 49 204 49 c 0
 227 49 252 56 278 70 c 0
 321 94 343 138 343 188 c 0
 343 252 307 324 229 375 c 1
EndSplineSet
EndChar

StartChar: p
Encoding: 112 112 82
Width: 637
Flags: W
HStem: 53 35<278 412.157> 370 38<282.205 465.127>
VStem: 244 34<88.1406 235.961> 548 41<169.402 294.952>
LayerCount: 2
Fore
SplineSet
50 233 m 0
 67 339 299 408 381 408 c 0
 482 404 589 340 589 235 c 0
 589 222 587 208 583 193 c 0
 555 84 404 53 302 53 c 0
 294 53 286 54 278 54 c 1
 278 -74 268 -197 236 -321 c 0
 233 -331 220 -333 214 -324 c 0
 208 -314 205 -297 205 -276 c 0
 205 -208 233 -102 236 -67 c 0
 244 30 244 128 244 225 c 0
 244 231 249 236 255 236 c 2
 265 236 l 2
 272 236 278 230 278 223 c 2
 278 88 l 1
 279 88 281 88 282 88 c 0
 376 88 548 118 548 227 c 0
 548 246 543 267 531 291 c 0
 504 347 435 370 373 370 c 0
 350 370 328 367 309 361 c 0
 257 347 208 318 163 289 c 0
 141 274 101 233 70 218 c 0
 60 213 48 222 50 233 c 0
EndSplineSet
EndChar

StartChar: q
Encoding: 113 113 83
Width: 465
Flags: W
HStem: -3 56<100.772 273.148> 388 38<231.605 343.957>
VStem: 50 37<68.9959 129 131 209.341> 331 78<-255.579 -85.5> 378 37<137.782 347.924>
LayerCount: 2
Fore
SplineSet
64 64 m 0xf0
 54 89 50 114 50 139 c 0
 50 278 182 408 279 424 c 0
 282 424 285 426 288 426 c 2
 292 426 l 2
 394 426 415 345 415 252 c 0xe8
 415 214 409 174 409 137 c 2
 409 -241 l 1
 408 -253 367 -262 357 -262 c 2
 345 -262 l 2
 337 -262 330 -253 331 -243 c 0
 347 -131 362 -19 376 93 c 1
 342 44 250 -3 173 -3 c 0
 126 -3 83 15 64 64 c 0xf0
378 239 m 0
 378 315 367 388 294 388 c 0
 186 388 87 219 87 136 c 2
 87 131 l 1
 86 129 l 1
 87 77 111 60 124 57 c 0
 137 54 150 53 163 53 c 0
 179 53 196 55 213 56 c 0
 282 62 314 107 365 141 c 0
 372 145 376 153 376 162 c 0
 377 184 378 211 378 239 c 0
EndSplineSet
EndChar

StartChar: r
Encoding: 114 114 84
Width: 378
Flags: W
HStem: 375 46<188.187 296.373>
VStem: 50 35<57.5661 230.184> 302 27<337.235 365.724>
LayerCount: 2
Fore
SplineSet
102 20 m 0
 67 24 50 65 50 121 c 0
 50 239 126 421 246 421 c 0
 274 421 329 383 329 355 c 0
 329 348 326 342 319 337 c 0
 313 332 304 336 302 343 c 0
 297 369 277 375 253 375 c 0
 249 375 245 375 241 375 c 0
 189 373 154 328 126 286 c 0
 99 244 85 196 85 148 c 0
 85 109 94 71 112 35 c 0
 116 28 110 19 102 20 c 0
EndSplineSet
EndChar

StartChar: s
Encoding: 115 115 85
AltUni2: 0000df.ffffffff.0
Width: 479
Flags: W
HStem: 6 41<71.711 383.401> 28 36<50.2305 166.022> 373 47<195.317 344.081>
VStem: 127 35<268.832 345.107>
LayerCount: 2
Fore
SplineSet
183 223 m 0xb0
 144 251 127 281 127 310 c 0
 127 369 201 420 290 420 c 0
 330 420 371 392 387 357 c 0
 391 349 385 340 377 340 c 2
 359 340 l 2
 353 340 348 343 346 348 c 0
 339 364 308 373 274 373 c 0
 222 373 162 353 162 312 c 0
 162 299 167 285 180 268 c 0
 234 198 430 156 430 52 c 0
 430 41 428 32 418 29 c 0
 361 14 302 6 243 6 c 0xb0
 182 6 121 14 63 28 c 0
 55 30 50 37 50 45 c 2
 50 54 l 2
 50 60 56 65 62 64 c 0x70
 135 55 205 47 276 47 c 0
 310 47 345 48 380 53 c 0
 388 54 392 63 388 70 c 0
 358 121 209 203 183 223 c 0xb0
EndSplineSet
EndChar

StartChar: t
Encoding: 116 116 86
Width: 427
Flags: W
HStem: 4 48<243.241 370.419> 338 43<217.908 378> 347 47<59.9629 159.179>
VStem: 145 42<105 327.68> 226 36<625.574 673>
LayerCount: 2
Fore
SplineSet
226 662 m 2xd8
 228 668 234 673 240 673 c 2
 250 673 l 2
 257 673 263 667 262 660 c 0
 257 568 232 473 217 381 c 1
 367 381 l 2
 373 381 378 376 378 371 c 2
 378 348 l 2
 378 341 372 336 365 336 c 0
 342 337 319 338 297 338 c 0xd8
 283 338 271 338 258 336 c 0
 197 327 203 342 193 269 c 0
 189 240 187 215 187 193 c 0
 187 91 231 53 364 52 c 0
 370 52 375 47 375 40 c 0
 372 15 350 4 320 4 c 0
 256 4 157 54 148 118 c 0
 146 133 145 148 145 163 c 0
 145 224 157 289 160 347 c 1
 134 347 100 353 58 366 c 0
 50 369 47 379 53 384 c 0
 61 391 74 394 89 394 c 0xb8
 119 394 157 383 172 381 c 1
 226 662 l 2xd8
EndSplineSet
EndChar

StartChar: u
Encoding: 117 117 87
AltUni2: 0000fc.ffffffff.0 0000fb.ffffffff.0 0000fa.ffffffff.0 0000f9.ffffffff.0
Width: 375
Flags: W
HStem: 2 49<119.656 226.998> 345 20G<74.5 84>
VStem: 50 38<89.7225 352.991> 289 37<134.564 340.727>
LayerCount: 2
Fore
SplineSet
62 349 m 0
 63 358 70 365 79 365 c 0
 89 365 98 356 97 346 c 0
 94 311 88 256 88 203 c 0
 88 125 102 51 165 51 c 0
 166 51 167 51 169 51 c 0
 273 57 289 169 289 264 c 0
 289 290 288 315 287 336 c 0
 286 350 305 355 311 342 c 0
 321 323 326 291 326 254 c 0
 326 149 282 2 164 2 c 0
 156 2 147 2 138 4 c 0
 68 16 50 108 50 199 c 0
 50 255 57 311 62 349 c 0
EndSplineSet
EndChar

StartChar: v
Encoding: 118 118 88
Width: 513
Flags: W
HStem: -4 21G<228 251.5> 380 20G<54 95 454 461>
LayerCount: 2
Fore
SplineSet
51 392 m 0
 49 396 52 400 56 400 c 0
 134 400 227 130 245 58 c 1
 392 306 l 2
 412 338 448 385 460 385 c 0
 462 385 464 383 464 379 c 0
 464 372 460 358 451 335 c 0
 427 273 274 -4 229 -4 c 0
 227 -4 225 -4 224 -3 c 0
 206 7 185 92 177 111 c 0
 136 205 93 299 51 392 c 0
EndSplineSet
EndChar

StartChar: w
Encoding: 119 119 89
Width: 638
Flags: W
HStem: 1 21G<105 142> 24 44<348.502 471.949> 106 68<259.126 311.719> 375 48<404.012 491.547>
VStem: 50 46<46.9525 190.786> 551 38<142.801 295.092>
LayerCount: 2
Fore
SplineSet
465 375 m 0
 441 387 409 380 403 399 c 0
 399 411 409 423 422 423 c 0
 525 418 589 315 589 215 c 0
 589 185 583 154 570 127 c 0
 540 65 465 24 395 24 c 0
 391 24 387 24 383 24 c 0
 311 28 322 59 309 93 c 0
 306 99 305 106 297 106 c 0
 292 106 284 102 268 91 c 0
 231 64 168 1 116 1 c 0
 94 1 74 12 59 42 c 0
 53 55 50 72 50 92 c 0
 50 167 89 276 123 319 c 0
 142 343 159 355 168 355 c 0
 174 355 177 351 177 343 c 0
 177 333 173 319 163 299 c 0
 124 218 98 154 96 66 c 0
 96 54 107 45 119 47 c 0
 193 62 226 159 290 171 c 0
 299 173 306 174 311 174 c 0
 328 174 322 161 332 132 c 1
 353 88 346 68 381 68 c 0
 388 68 398 69 410 71 c 0
 497 84 551 136 551 213 c 0
 551 230 548 249 542 269 c 0
 529 312 507 353 465 375 c 0
EndSplineSet
EndChar

StartChar: x
Encoding: 120 120 90
Width: 463
Flags: W
HStem: 11 21G<63.5 67.5 370.5 384.5> 146 82<209 236.639> 426 20G<393.5 403>
VStem: 380 34<396.154 445.947>
LayerCount: 2
Fore
SplineSet
380 432 m 0
 382 440 389 446 398 446 c 0
 408 445 416 436 414 425 c 0
 402 364 336 298 301 257 c 0
 269 220 251 206 251 190 c 0
 251 178 262 165 286 141 c 0
 305 121 393 56 393 28 c 0
 393 15 388 11 381 11 c 0
 360 11 319 55 308 63 c 0
 289 80 230 146 209 146 c 0
 208 145 l 0
 171 141 128 37 94 19 c 0
 79 11 70 8 65 8 c 0
 62 8 61 10 61 13 c 0
 61 20 67 33 75 51 c 0
 92 89 131 129 161 164 c 0
 168 172 167 184 158 189 c 0
 119 216 51 306 50 323 c 0
 50 326 50 328 50 330 c 0
 50 349 54 355 60 355 c 0
 73 355 94 321 105 309 c 0
 149 260 170 228 196 228 c 0
 215 228 235 244 267 281 c 0
 295 314 369 380 380 432 c 0
EndSplineSet
EndChar

StartChar: y
Encoding: 121 121 91
AltUni2: 0000ff.ffffffff.0 0000fd.ffffffff.0
Width: 504
Flags: W
HStem: -291 26<168.814 250.02> 5 40<115.217 232.979>
VStem: 50 30<83.3998 171.299> 410 45<58.9122 214>
LayerCount: 2
Fore
SplineSet
165 331 m 0
 167 335 172 338 176 338 c 0
 188 338 195 325 188 315 c 0
 150 260 80 174 80 123 c 0
 80 122 80 121 80 120 c 0
 84 73 135 45 178 45 c 0
 185 45 190 46 196 47 c 0
 239 56 277 101 305 132 c 0
 327 158 345 206 410 300 c 0
 414 306 421 309 428 309 c 0
 436 309 445 304 448 295 c 0
 453 281 455 261 455 238 c 0
 455 160 432 47 427 24 c 0
 405 -78 355 -258 241 -286 c 0
 227 -290 213 -291 200 -291 c 0
 139 -291 87 -254 66 -192 c 0
 60 -176 52 -153 52 -134 c 0
 52 -120 57 -108 71 -106 c 0
 72 -106 72 -106 73 -106 c 0
 99 -106 103 -193 126 -217 c 0
 157 -251 186 -265 212 -265 c 0
 349 -265 410 137 410 214 c 1
 371 125 280 5 173 5 c 0
 164 5 155 6 145 8 c 0
 99 17 60 49 51 99 c 0
 50 104 50 108 50 113 c 0
 50 182 127 271 165 331 c 0
EndSplineSet
EndChar

StartChar: z
Encoding: 122 122 92
Width: 523
Flags: W
HStem: -5 38<101.469 391.331> 4 46<233.099 467.552> 328 44<107.053 284.561> 337 39<131.439 388.81>
VStem: 50 50<38.7142 95.5212> 391 56<303.341 345>
LayerCount: 2
Fore
SplineSet
107 349 m 0x2c
 107 361 117 372 129 372 c 0x2c
 181 373 235 376 287 376 c 0x1c
 316 376 345 375 372 372 c 0x2c
 427 365 447 353 447 337 c 0
 447 315 410 288 373 262 c 0
 300 211 201 172 137 111 c 0
 111 87 100 70 100 58 c 0
 100 39 128 34 179 33 c 0
 182 33 184 33 187 33 c 0x9c
 269 33 350 47 442 50 c 1
 461 47 474 45 474 37 c 0
 474 31 465 21 442 4 c 1x4c
 338 2 253 0 197 -2 c 0
 178 -3 155 -5 132 -5 c 0
 90 -5 50 4 50 54 c 0
 50 59 50 64 51 70 c 0
 65 163 264 243 333 281 c 0
 372 303 391 317 391 326 c 0
 391 334 372 337 335 337 c 0
 332 337 329 337 325 337 c 0x9c
 260 337 196 334 131 328 c 0
 130 328 130 328 129 328 c 0
 118 328 108 337 107 349 c 0x2c
EndSplineSet
EndChar

StartChar: braceleft
Encoding: 123 123 93
Width: 600
Flags: W
HStem: -43 31<233.872 518.82> 425 36<51.2328 217.485> 820 35<157.044 359.393>
VStem: 98 36<680.326 797.767> 102 43<26.8067 114.32> 225 39<477.249 518.049> 259 34<288.292 384.083>
LayerCount: 2
Fore
SplineSet
109 686 m 0xe4
 102 708 98 728 98 748 c 0
 98 809 138 855 236 855 c 0
 281 851 327 847 370 836 c 0
 380 834 399 831 407 824 c 0
 417 815 415 812 412 806 c 0
 407 798 396 793 385 796 c 0
 340 809 287 820 237 820 c 0
 221 820 204 819 189 816 c 0
 147 808 134 781 134 752 c 0
 134 736 138 718 143 703 c 0
 163 641 204 582 243 527 c 0
 258 507 264 495 264 485 c 0xf4
 264 469 245 460 214 434 c 1
 270 434 293 374 293 337 c 0
 293 286 259 233 229 191 c 0
 206 160 145 106 145 63 c 0
 145 46 155 30 181 19 c 0
 226 0 285 -5 335 -10 c 0
 349 -12 362 -12 375 -12 c 0
 399 -12 423 -10 449 -8 c 0
 459 -7 495 -2 520 -2 c 0
 530 -2 539 -3 542 -6 c 0
 549 -11 551 -16 551 -20 c 0
 551 -41 469 -43 430 -43 c 0
 421 -43 414 -43 411 -43 c 0
 408 -43 405 -43 401 -43 c 0
 314 -43 194 -42 128 9 c 0
 109 24 102 41 102 60 c 0
 102 113 162 177 192 215 c 0
 218 248 259 299 259 343 c 0xea
 259 366 248 387 216 404 c 0
 170 428 116 410 71 425 c 0
 54 430 44 424 53 449 c 0
 57 460 58 461 62 461 c 0
 64 461 66 461 70 461 c 0
 73 461 77 461 82 462 c 0
 120 469 163 462 199 475 c 0
 210 479 222 476 225 486 c 0
 225 487 225 487 225 488 c 0
 225 499 205 518 198 527 c 0
 164 577 128 630 109 686 c 0xe4
EndSplineSet
EndChar

StartChar: verticalbar
Encoding: 124 124 94
Width: 225
Flags: W
VStem: 50 49<-57.2551 213.25> 130 46<745.262 969.971>
LayerCount: 2
Fore
SplineSet
130 950 m 0
 131 961 141 970 153 970 c 0
 165 970 176 960 176 947 c 0
 176 946 176 946 176 945 c 0
 152 721 129 496 113 271 c 0
 107 194 102 116 99 39 c 0
 99 26 101 7 101 -10 c 0
 101 -20 101 -29 98 -36 c 0
 92 -51 84 -58 76 -58 c 0
 66 -58 57 -46 52 -27 c 0
 50 -19 50 -11 50 -2 c 0
 50 26 56 58 58 82 c 0
 63 152 68 222 74 292 c 0
 91 511 111 730 130 950 c 0
EndSplineSet
EndChar

StartChar: braceright
Encoding: 125 125 95
Width: 510
Flags: W
HStem: 810 45<101.303 359.705>
VStem: 160 35<480.046 509.824> 173 44<338.539 387.383> 367 32<729.409 794.081> 392 41<72.1371 156.909>
LayerCount: 2
Fore
SplineSet
102 835 m 0xd0
 110 859 208 853 239 855 c 0
 297 853 396 855 399 788 c 0
 399 786 399 784 399 782 c 0
 399 737 366 695 339 659 c 0
 321 635 195 504 195 482 c 0xd0
 195 481 195 481 196 480 c 0
 201 475 216 474 236 474 c 0
 276 474 331 480 346 480 c 0
 359 480 390 483 416 483 c 0
 435 483 452 481 457 475 c 0
 460 471 462 468 462 464 c 0
 462 440 378 432 362 428 c 0
 326 419 287 410 253 394 c 0
 242 389 217 380 217 366 c 0
 217 346 320 271 339 251 c 0
 372 216 433 156 433 105 c 0
 433 103 433 101 433 99 c 0
 428 41 339 14 289 4 c 0
 239 -6 188 -9 138 -10 c 0
 128 -10 101 -13 81 -13 c 0
 71 -13 63 -12 60 -10 c 0
 53 -4 50 0 50 4 c 0
 50 18 83 22 95 23 c 0
 148 26 200 29 252 37 c 0
 291 43 368 50 386 90 c 0
 390 98 392 106 392 114 c 0
 392 137 375 156 358 173 c 0
 338 195 317 216 296 236 c 0
 260 271 205 306 180 346 c 0
 175 354 173 361 173 368 c 0xa8
 173 389 190 406 215 419 c 0
 224 423 251 426 251 433 c 0
 251 442 213 444 203 446 c 0
 173 453 160 455 160 478 c 0
 160 481 160 483 160 486 c 0
 162 504 179 524 188 539 c 0
 211 572 237 603 263 634 c 0
 289 666 356 718 365 756 c 0
 366 761 367 766 367 770 c 0
 367 823 246 810 233 814 c 1
 221 814 187 810 157 810 c 0
 127 810 101 814 101 829 c 0
 101 831 101 833 102 835 c 0xd0
EndSplineSet
EndChar

StartChar: asciitilde
Encoding: 126 126 96
Width: 839
Flags: W
HStem: 261 35<438.532 601.173> 509 35<253.151 331.032>
VStem: 50 55<288.755 347.968>
LayerCount: 2
Fore
SplineSet
272 535 m 0
 289 540 307 541 324 544 c 0
 356 544 370 470 375 450 c 0
 384 417 384 359 406 334 c 0
 430 308 474 297 508 296 c 1
 516 296 l 2
 567 296 618 305 664 331 c 0
 691 346 715 367 736 390 c 0
 747 404 756 422 769 434 c 1
 769 435 l 1
 777 443 792 436 790 424 c 0
 777 340 681 301 608 280 c 0
 580 272 547 261 517 261 c 2
 507 261 l 1
 429 267 362 313 353 385 c 0
 349 416 350 509 302 509 c 0
 271 509 231 478 213 463 c 0
 189 444 168 422 147 400 c 0
 127 378 116 362 105 337 c 0
 98 320 86 279 68 278 c 1
 64 278 l 2
 53 278 50 284 50 292 c 0
 50 306 62 328 66 337 c 0
 95 396 140 447 193 486 c 0
 216 504 244 527 272 535 c 0
EndSplineSet
EndChar

